<svg xmlns="http://www.w3.org/2000/svg" width="256" height="256" viewBox="0 0 256 256">
    <g fill="none" fill-rule="evenodd" transform="translate(27 35)">
        <path fill="#CDDC39" d="M52.46 51.67c-.169-.688-.038-1.414.36-2l.29-.23 6.32-4.39c.38-.27.538-.758.39-1.2l-1.12-3.2c-3-8.87 1.34-16.52 10.29-19 1.28-.38 2 2.54 2.17 4.6.101.849-.463 1.635-1.3 1.81-.44.1-.85.2-1.21.3-4.39 1.3-5.82 4.43-4.18 9.64l.2.62.58 1.65c.051.146.167.26.314.309.146.049.307.027.436-.059l9.17-6.39c1.006-.703 2.33-.758 3.39-.14l.31.2 3.27 2.44c.17.118.388.138.576.051.187-.086.314-.266.334-.471.63-7 2-9.49 5.64-11.42.58-.31 2.42-1.25 3-1.14.58.11 1 1.08 1.36 2.2.472 1.435.034 3.013-1.11 4-.259.217-.503.45-.73.7-1.23 1.29-1.76 3.4-2.13 10.22-.034.597.233 1.17.71 1.53l4.92 3.7.19.11c1.69.9 2 .9 2.26-.51l.13-.7c.14-.82.41-2.27 1-2.73.59-.46 4.75.49 5.21 1.15.474.778.651 1.701.5 2.6-1.15 6.38-6.25 8.66-12 5.83l-.55-.29-.38-.25-1.2-.89c-.26-.192-.602-.23-.898-.1-.295.13-.498.409-.532.73-.74 7.12-2.37 10.1-6.84 11.14-.947.233-1.944.137-2.83-.27-.69-.43-1.49-4-1.14-4.7.35-.7 1.43-.81 2.19-1.09l.35-.1c1.15-.27 1.92-3.19 2.31-10.28.028-.5-.197-.981-.6-1.28l-5-3.75-8.55 6c-.433.3-.61.855-.43 1.35l6.59 18.83c.362 1.376.626 2.776.79 4.19.053.52-.155 1.033-.556 1.369-.4.336-.94.453-1.444.311l-3-.78c-.765-.211-1.343-.84-1.49-1.62-.06-.29-.13-.6-.2-.91l-.17-.73L62.68 52c-.105-.29-.337-.516-.63-.612-.293-.095-.614-.05-.87.122l-5.55 3.86c-.23.146-.508.192-.772.128s-.491-.233-.628-.468l-1.77-3.36z"/>
        <circle cx="121.21" cy="21.59" r="4" fill="#1A2350" fill-rule="nonzero" opacity=".05"/>
        <circle cx="77.09" cy="2.72" r="2" fill="#1A2350" fill-rule="nonzero" opacity=".05"/>
        <path fill="#1A2350" fill-rule="nonzero" d="M9.966 24.998H18.456V33.488H9.966z" opacity=".05" transform="rotate(45 14.211 29.243)"/>
        <path stroke="#000" stroke-linecap="round" stroke-linejoin="round" d="M51.9 69.2c-4.25-1-4.28-1-7.81-1.77M162.11 48l39.29 9.25s-41.18 11.65-52.85 14l-47.45 9.62S76 74.76 55.9 70.11M149.96 45.1L152.33 45.66M90.42 36.1L101.1 33.59 137.83 42.24M32.68 65C18.4 62.26.8 57.21.8 57.21L55.22 44.4M101.1 181.65s-.3-83.17 0-96.23M100.38 63.78s-.33-7.37-.28-11.23M101 39.68c0-1.59.06-3.33.12-6.09"/>
        <path stroke="#000" stroke-linecap="round" stroke-linejoin="round" d="M201.4 57.21c.51 20.9-.5 88.94 0 105.4l-53.77 12.66-46.53 11s-41.54-9.9-62.53-15.15c-20.99-5.25-36-6.46-37.77-8.47-.92-8.2-.54-97.57 0-105.4"/>
        <path stroke="#000" stroke-linecap="round" stroke-linejoin="round" d="M155.46 67.54l8.86-35.75c-1.006.26-1.981.625-2.91 1.09-1.58.63-3 1-3.14 1.59l-8.52 34M173.89 64.38c.76-1.478.878-3.202.33-4.77l-1.39-4c-1.11-3.19-4-5.27-7.76-4.1s-4.88 4.94-3.77 8.12l1.38 4c.401 1.148 1.136 2.151 2.11 2.88m5.65-7.48c.69 2.18-.27 3.63-1.48 4-1.35.35-2.728-.454-3.09-1.8l-.62-1.76c-.49-1.42.05-3 1.31-3.33.686-.2 1.423-.114 2.045.235.623.35 1.079.936 1.265 1.625M141.12 42.85v-.61c-3.18 1.11-5.54 5.17-4.43 8.36l2 4.55c1.11 3.19 4.67 4.31 7.85 3.2h0c1.53-.533 2.786-1.652 3.491-3.111.705-1.46.802-3.139.269-4.669l-1.38-4c-.54-1.528-1.667-2.778-3.13-3.476-1.462-.697-3.142-.785-4.67-.244zm5.21 7.86c.56 2-.07 3-1.31 3.33-.649.176-1.34.085-1.922-.253-.58-.339-1.001-.896-1.168-1.547l-.61-1.76c-.553-1.279.027-2.764 1.3-3.33.604-.212 1.27-.164 1.837.131.568.296.99.813 1.163 1.429l.71 2zM51.42 50.41c-.163-.69-.025-1.417.38-2l.29-.22 7-4.78-1.34-4c-3-8.9 1.51-16.5 10.49-18.94 1.68-.47 2.27 4.71 2.16 6.18-.868.137-1.73.317-2.58.54-4.4 1.25-5.86 4.37-4.27 9.59l.19.62.77 2.28 9.78-6.66c1.034-.675 2.368-.682 3.41-.02l.3.21 4.07 3.09c.67-7.77 2-10.41 5.85-12.39.58-.3 2.43-1.23 3-1.11 1 .19 2.15 4.54 1.83 5.42-.948.211-1.792.745-2.39 1.51-1.3 1.34-1.85 3.58-2.29 11.16l5.62 4.29.2.11c1.67.92 1.94.92 2.25-.49l.14-.69c.16-.82.44-2.27 1.06-2.72.62-.45 4.74.53 5.2 1.2.46.67.12 1.84 0 2.7-1.2 6.37-5.82 8.5-11.51 5.61l-.56-.3-.37-.24-2.47-1.88c-.75 8.27-2.31 11.6-7.11 12.66-.85.18-2.16.59-2.85.16-.69-.43-1.43-4.52-1.08-5.17.35-.65 1.45-.8 2.21-1.07l.35-.1c1.19-.26 2-3.39 2.47-11.06L76 39.59 66.64 46l6.69 19.75c.532 2.107.824 4.267.87 6.44"/>
        <path stroke="#000" stroke-linecap="round" stroke-linejoin="round" d="M67.81 70.38c-.09-.68-.21-1.41-.38-2.18l-.17-.74-6.05-17.81-7.56 5.14M4.93 181.65C9.84 165.14 33.16 73.08 36.74 59.36M23.08 186.23C28 169.73 51.87 75.52 55.45 61.8M7.35 172.57s12.61 2.78 18.3 4.05M11.11 161.3s11.41 2.78 17.1 4M14.22 149.58L31.54 153.41M17.26 138.77s10.81 2.78 16.5 4M20.26 127.5s11.61 2.78 17.3 4M22.39 115.66s12.61 2.78 18.3 4.05M26.41 103.83L43.7 107.65M28.15 92.56s12.61 2.78 18.3 4.05M45 84.26L49 85.15M36.58 82.4L41.84 83.56M31.54 81.29L33.82 81.8M44.86 72.14L51.86 73.7M34.44 69.84L36.89 70.38M38.36 59.81c-.18 1.37-.13 7.57-.18 8.06.45.43 4.5 1 5.95.62-.07-1.565.017-3.133.26-4.68.64-.42 1.19-.4 1.1-2.21M45.35 54.1c0 .65.19.72.19 1s-.21.19-.39.22c-.18.03-.27 1.3-.47 1.48-.2.18-.23.09-.45.06"/>
        <path stroke="#000" stroke-linecap="round" stroke-linejoin="round" d="M39.23 71.41c-.314 1.368.308 2.78 1.53 3.47.13 2.87 2.56 17.74 2.31 18.09-.25.35 2.06.7 2.2-.14.42-1.6-.34-11.65-.24-13.72.1-2.07-.9-10.62-.9-10.62"/>
        <path stroke="#000" stroke-linecap="round" stroke-linejoin="round" d="M38.17 68.23c-.54.56-2 2.34-1.55 6.23-1.83 6.77-6.37 15.56-6.41 16.12.07.23 2.27 1.25 2.47.26.2-.99 6.91-14.62 7.21-15.09M30.15 91.28c-.2.77-.55 1.47-.38 1.49.17.02 1.23.62 1.39-.11.43.51 3.83 1.3 3.41.71-.42-.59-2.21-1.59-2.24-1.86M42.83 93.62c-.2.77-.34 1.43-.17 1.45.17.02 1.2.59 1.35-.07.24.15 3.73 1.12 3.32.52-.41-.6-2.08-1.35-2.2-1.85M52.19 51.58c.11-.15.22-.28.3-.38.33-.41 1.91-1.11 1.55 0-.517 1.036-1.126 2.023-1.82 2.95-1.016 1.558-2.17 3.02-3.45 4.37-1.19 1.15-2 1.53-3.61 3"/>
        <path stroke="#000" stroke-linecap="round" stroke-linejoin="round" d="M44.41 58.77s2-1.31 3.19-1.9c1.19-.59 2.77-2.93 3.61-3.77.24-.49.47-1.09.69-1.67M38.29 56.61c.19-.09.47-.17.62-.23.15-.06-.26-.35-.94-.22-.85.15-3.17.67-3.16 2 0 .51 1.35 1.2 3.87 1.7"/>
        <path stroke="#000" stroke-linecap="round" stroke-linejoin="round" d="M38.77 57.21c-.88-.09-.2 0-.55-.09-.65-.16-.21-.26.25-.51"/>
        <path fill="#000" fill-rule="nonzero" stroke="#000" stroke-linecap="round" stroke-linejoin="round" d="M39.33 56.83c.528-.779.723-1.737.54-2.66-.32-1.466.168-2.992 1.28-4 1.46-1.29 4.83-.6 5.35.73.46 1.15-.31 2.38-1.32 2.23-1.01-.15-2.26.52-2 1.62.53 2 1.48 3.74-.15 4.09.68 1.34-.85 2.9-2.28 2.53-.964-.205-1.742-.914-2.037-1.855-.294-.94-.058-1.967.617-2.685z"/>
        <path stroke="#000" stroke-linecap="round" stroke-linejoin="round" d="M50.88 53.77L51.87 54.33M79.75 71.94c3.407-5.652 9.997-8.554 16.466-7.254 6.47 1.301 11.426 6.525 12.384 13.054"/>
        <path fill="#000" fill-rule="nonzero" stroke="#000" stroke-linecap="round" stroke-linejoin="round" d="M126.92 56.49s-5.89-1.7-6.78-2.32l2.31-6.78c-.65-.424-1.352-.76-2.09-1-.734-.25-1.497-.405-2.27-.46l-2.32 6.78s-5.32-2-6.78-2.31c-.24.62-1.49 4.37-1.49 4.37l6.78 2.31-2.2 6.74c.33.63 4.26 1.53 4.26 1.53s2.23-6.62 2.55-6.92c.83.28 6.54 2.45 6.54 2.45l1.49-4.39z"/>
        <path stroke="#000" stroke-linecap="round" stroke-linejoin="round" d="M121.16 74.56s3-5.07 3.85-6.14c.56.29 5.83 2.81 8.22 4"/>
        <path fill="#1A2350" fill-rule="nonzero" d="M172.43 50.39c5.55.75 21.51 5.07 23.16 5.45 1.65.38 2.1 3.32-2.08 3.59s-18.23 6.94-18 2.52c.23-4.42-3.36-10.78-5.5-10.74-2.14.04-8.37 1.42-8.66 3.74-.29 2.32 2.91 10 1.69 11.56-1.22 1.56-5.21 2.5-5.41 0-.2-2.5 2.35-15.29 3.29-16.4.94-1.11 7.16-.31 11.51.28z" opacity=".1"/>
        <ellipse cx="144.12" cy="50.77" fill="#1A2350" fill-rule="nonzero" opacity=".1" rx="1.77" ry="2.81"/>
        <circle cx="168.49" cy="60.07" r="2.57" fill="#1A2350" fill-rule="nonzero" opacity=".1"/>
        <path fill="#1A2350" fill-rule="nonzero" d="M152.33 47.12c-2.56-.75-1.63.19-2.05 3.45-.42 3.26.59 6.27-3.76 7.78-4.35 1.51-7.85-3.2-10.09-5.8-2.24-2.6 3.83-10 1.4-10.31-2.43-.31-36.71-9.52-36.73-8.65-.02.87-1 20.65-.72 24.39.109 2.236-.086 4.476-.58 6.66-1.74-.64.61 1.34.58 2.79-.07 3.3-7.3 4.69-11.65 4.69-3.34 0-6.19-.88-7.33-2.12-1.87 1.51-1.1 1.44-1.14 2.92-.09 4.42 10.84 4.57 13.91 5.27 2.78.63 13.24 5 16.11 1 11.15-1.78 35.21-7.4 38.27-8 3.8-.74 6.35-23.31 3.78-24.07z" opacity=".1"/>
    </g>
</svg>
