<svg xmlns="http://www.w3.org/2000/svg" width="256" height="256" viewBox="0 0 256 256">
    <g fill="none" fill-rule="evenodd" transform="translate(28 34)">
        <path fill="#CDDC39" fill-rule="nonzero" d="M180.59 93.31c-9.46 0-17.34 9.18-19.12 20.59-.09.57-1.05 1.68-1.64 1.66-10.09-.32-68.32-1.17-78.82-.76-.564.019-1.032.441-1.11 1l-1 6.38c-.04.228.026.462.18.636.154.173.379.267.61.254 9.18-.31 69-.4 80.27.18.83.22 1.512.81 1.85 1.6 1.53 6.86 5.32 12.51 10.29 15.57-.387-2.316-.63-4.654-.73-7 .09-1.67 1.11-2.55 1.69-.62.45 1.51 1.61 6.81 2.1 9.06l.74.31c1.518.477 3.1.72 4.69.72h.41c-.633-2.297-1.105-4.637-1.41-7-.15-2 .14-2.27 1.59-3.1 1.45-.83 5.6.29 5.75 3.75.025 1.737-.122 3.472-.44 5.18 7.88-3.19 13.59-12.56 13.59-23.62.02-13.69-8.71-24.79-19.49-24.79zm5.35 31.58c-2.44 0-4.43-2.79-4.43-6.24s2-6.24 4.43-6.24c2.43 0 4.43 2.79 4.43 6.24s-1.98 6.24-4.43 6.24z"/>
        <circle cx="147.58" cy="45.2" r="4" fill="#1A2350" fill-rule="nonzero" opacity=".05"/>
        <circle cx="87.61" cy="2.45" r="2" fill="#1A2350" fill-rule="nonzero" opacity=".05"/>
        <path fill="#1A2350" fill-rule="nonzero" d="M29.747 7.423H38.237V15.913H29.747z" opacity=".05" transform="rotate(45 33.992 11.668)"/>
        <path stroke="#000" stroke-linecap="round" stroke-linejoin="round" d="M186.94 145.68c.05 1.63-.79 8.89-.79 9.47-.58.46-5.4.67-7.05 0 .276-1.826.37-3.675.28-5.52-.7-.58-1.35-.62-1-2.73"/>
        <path fill="#000" fill-rule="nonzero" stroke="#000" stroke-linecap="round" stroke-linejoin="round" d="M186 142.31c-.549-1.019-.66-2.217-.31-3.32.58-1.726.199-3.63-1-5-1.62-1.76-4.72-1-5.55 0-1 1.17-1 3.1.23 3 1.81-1.77 2.69.93 2.18 2.22-.92 2.31-2.32 4.37-.36 5-1 1.55.66 3.64 2.46 3.38 1.181-.132 2.204-.881 2.687-1.967.484-1.086.355-2.347-.337-3.313h0z"/>
        <path stroke="#000" stroke-linecap="round" stroke-linejoin="round" d="M179.45 138.12c-.09.76-.31.82-.35 1.14-.04.32.23.25.44.31s.15 1.55.37 1.79.25.13.52.13M184.49 159.18c0 1.72-.54 3.22-2.22 3.87-.51 3.36-5.2 20.5-5 20.94.2.44-2.51.56-2.56-.44-.29-1.93 1.83-13.62 2-16.06.17-2.44 2.36-12.34 2.36-12.34"/>
        <path stroke="#000" stroke-linecap="round" stroke-linejoin="round" d="M186.12 155.58c.57.72 2 3 1.06 7.5 1.3 8.16 5.54 19 5.52 19.69-.11.27-2.82 1.19-2.93 0-.11-1.19-6.29-18-6.6-18.59M192.68 183.61c.14.92.47 1.78.26 1.78-.21 0-1.52.58-1.61-.29-.57.54-4.66 1.05-4.09.41.57-.64 2.79-1.6 2.86-1.9M177.52 184.79c.14.92.22 1.71 0 1.71s-1.48.55-1.57-.24c-.3.13-4.52.84-4 .19.52-.65 2.6-1.33 2.8-1.9M172.28 134.92c0-.22-.07-.42-.1-.57-.12-.61-1.21-2.4-1.59-1.1-.38 1.3.68 3.23.65 3.81-.03.58 0 6.16 1.26 7.66 1.659 1.609 3.955 2.384 6.25 2.11"/>
        <path stroke="#000" stroke-linecap="round" stroke-linejoin="round" d="M180 143.71s-3.52.85-4.84 0c-1.32-.85-2.28-5.32-2.68-6.67 0-.64.11-1.4.2-2.12M191 137.37c.261.841.423 1.71.48 2.59 0 2.1-1.85 4.49-4.91 5.72M186.2 142.58c1.038-.208 1.984-.74 2.7-1.52.265-.607.375-1.27.32-1.93M172.3 137.63L171.37 137.69"/>
        <path fill="#1A2350" fill-rule="nonzero" d="M12.78 94.4c4.09-3 20.81-2.39 21.08 3.74.27 6.13-.22 83-2.47 86.57-2.25 3.57-14.48 1.48-17.17 2-2.69.52-1.22-46.71-1.44-51.79-.22-5.08 0-40.52 0-40.52z" opacity=".1"/>
        <path stroke="#000" stroke-linecap="round" stroke-linejoin="round" d="M137.23 114.11c-.07-11.93-.39-21-1.19-22.65-11.47-2-124.52 0-124.52 0s-.67 43.73 0 50.4c.67 6.67 0 45.4 0 45.4M136 187.26s1-33.82 1.18-61.32M34.07 94.4c.29 11.1-.6 91.86 0 88M.83 187.26c9.45-.3 147.33-.11 152.88 0"/>
        <path stroke="#000" stroke-linecap="round" stroke-linejoin="round" d="M28.83 91s.9-.38 0-29 19.61-47 47.72-47.81c28.11-.81 48.5 24.12 47.72 47.72-.78 23.6-.77 28.6-.77 28.6"/>
        <path stroke="#000" stroke-linecap="round" stroke-linejoin="round" d="M97.47 37.26C91.57 34 85.19 31.89 76.55 33 63 34.83 54.44 47.29 54.44 60.21v30.14M104.45 43c-.812-1.02-1.72-1.962-2.71-2.81"/>
        <path stroke="#000" stroke-linecap="round" stroke-linejoin="round" d="M100.25 88c.19-5.85 0-18.21 0-27.76 0-12.63-10.14-23.63-22.91-22.91-3.13.17-5.47.38-7.17.57M91.7 113.94c-1.287-2.43-3.763-3.997-6.51-4.12-4.53 0-8.19 4.7-8.19 10.5 0 4.4 2.11 8.17 5.1 9.73l-1.75 17.86H90l-1.76-17.86c2.712-1.606 4.531-4.374 4.93-7.5"/>
        <path stroke="#000" stroke-linecap="round" stroke-linejoin="round" d="M171.26 140.38c-5.78-3.09-10.13-9.62-11.49-17.56h0c-4.79-.75-76.34-.37-81.09 0"/>
        <path stroke="#000" stroke-linecap="round" stroke-linejoin="round" d="M80.64 114.29c7.53-.49 74.18-.2 78.69.07h.16c1.22-12.2 9.42-21.62 19.35-21.62 10.78 0 19.51 11.09 19.51 24.78 0 13.69-8.73 24.79-19.51 24.79-1.592.002-3.174-.245-4.69-.73"/>
        <ellipse cx="184.84" cy="117.54" stroke="#000" stroke-linecap="round" stroke-linejoin="round" rx="4.48" ry="5.69"/>
        <path fill="#1A2350" fill-rule="nonzero" d="M70.18 34.79c6.28-2.05 30.81-2.19 36 10.41 5.19 12.6 2.61 29.51 2.61 29.51s.52 13.84.65 15.64c.13 1.8-7.48 2.05-7.71-6 0 0 1.55-41.16-12.61-44.12-14.16-2.96-29.72-1.92-18.94-5.44z" opacity=".1"/>
        <path fill="#000" fill-rule="nonzero" d="M80.35 122.75c-2.15-.86-.84-3.37.29-5.21 1.13-1.84 3.82-3 6.07-3.1 3.51-.16 5.56-.55 4-1.85-2.23-1.87-3.34-3.12-6.82-2.77-1.022.167-1.998.541-2.87 1.1-.142.077-.28.164-.41.26-1.43.95-2.49 2.15-2 2.87-.778 1.754-1.319 3.604-1.61 5.5-.047 1.023.12 2.045.49 3h-.51c.455 1.537 1.016 3.041 1.68 4.5.75 1.38 3.42 3 3.42 3l-1.75 17.86 9.62-.64-1.7-17.22c1.24-1.052 2.4-2.195 3.47-3.42.62-1.308 1.11-2.675 1.46-4.08 0 0-10.67 1.05-12.83.2z"/>
    </g>
</svg>
