<svg xmlns="http://www.w3.org/2000/svg" width="256" height="256" viewBox="0 0 256 256">
    <g fill="none" fill-rule="evenodd" transform="translate(26 25)">
        <path fill="#1A2350" fill-rule="nonzero" d="M2.23 20.65H188.70999999999998V29.63H2.23z" opacity=".1"/>
        <circle cx="91.3" cy="4.62" r="4" fill="#1A2350" fill-rule="nonzero" opacity=".05"/>
        <circle cx="175.18" cy="12.62" r="2" fill="#1A2350" fill-rule="nonzero" opacity=".05"/>
        <path fill="#1A2350" fill-rule="nonzero" d="M56.64 160.84H65.13V169.33H56.64z" opacity=".05" transform="rotate(45 60.885 165.085)"/>
        <path fill="#CDDC39" fill-rule="nonzero" d="M156.17 95.37c3.78-3.85 12.23-8.09 13.9-6.71s5 20.71 5 22.63c0 1.92.89 2.42 3.28 3.1 2.39.68 19.75 5.76 21.73 6.47 1.98.71-7.18 15.24-17.91 16.78-10.73 1.54-26.95-5.47-30.33-14.1-3.38-8.63-3.7-19.99 4.33-28.17z"/>
        <path stroke="#000" stroke-linecap="round" stroke-linejoin="round" d="M166.83 143.61H2.23c-1.65 0-1.65-123 0-123 0 0 115.06-.54 129.24 0 14.18.54 59.25 0 59.25 0 .91 0 .95 34.14.52 64.88M191.59 152.35c.06 2.15-1 11.73-1 12.5-.77.61-7.13.88-9.31 0 .362-2.412.486-4.854.37-7.29-.93-.76-1.79-.81-1.36-3.6"/>
        <path fill="#000" fill-rule="nonzero" stroke="#000" stroke-linecap="round" stroke-linejoin="round" d="M190.34 147.9c-.72-1.346-.865-2.926-.4-4.38.766-2.302.244-4.838-1.37-6.65-2.15-2.33-7-1.28-8 0-1.28 1.55-.64 4.1 1 4 1.64-.1 3.55 1.23 2.87 2.93-1.2 3-3 5.77-.47 6.61-1.33 2.05.87 4.81 3.25 4.47 3.07-.38 5.43-3.79 3.12-6.98z"/>
        <path stroke="#000" stroke-linecap="round" stroke-linejoin="round" d="M181.7 142.37c-.12 1-.41 1.09-.46 1.5-.05.41.3.33.58.41.28.08.2 2.05.48 2.37.11.13.34.17.69.17M188.35 170.17c0 2.27-.71 4.25-2.93 5.12-.68 4.42-6.86 27.05-6.53 27.64.33.59-3.32.74-3.38-.59-.39-2.54 2.41-18 2.61-21.2.2-3.2 3.12-16.29 3.12-16.29"/>
        <path stroke="#000" stroke-linecap="round" stroke-linejoin="round" d="M190.51 165.42c.75 1 2.64 4 1.39 9.9 1.72 10.77 7.31 25.12 7.29 26-.15.35-3.73 1.56-3.87 0-.14-1.56-8.31-23.76-8.71-24.54M199.16 202.42c.18 1.21.62 2.36.34 2.36-.28 0-2 .76-2.12-.39-.75.71-6.15 1.38-5.39.54.76-.84 3.67-2.11 3.76-2.51M179.16 204c.18 1.22.29 2.27 0 2.27s-1.95.72-2.07-.33c-.39.19-6 1.12-5.22.27.78-.85 3.43-1.76 3.69-2.51M172.23 138.15c0-.29-.09-.55-.13-.76-.15-.8-1.59-3.16-2.1-1.45-.51 1.71.9 4.26.86 5-.04.74 0 8.13 1.66 10.11 1.66 1.98 5.56 3.24 8.26 2.79"/>
        <path stroke="#000" stroke-linecap="round" stroke-linejoin="round" d="M182.4 149.75s-4.65 1.12-6.39 0c-1.74-1.12-3-7-3.54-8.81 0-.84.14-1.84.26-2.79M192.68 135.09c-.27-.59-.67-1.11-.87-1.52-.37-.73.49-1.75 1.5-.8.853.931 1.48 2.047 1.83 3.26.34.7 2.43 6.52 2.43 8.77 0 2.77-2.44 5.93-6.49 7.55"/>
        <path stroke="#000" stroke-linecap="round" stroke-linejoin="round" d="M190.61 148.26c1.38-.41 3-1.08 3.56-2 1.1-1.76-.24-8.53-.84-9.5-.448-.56-.966-1.06-1.54-1.49M177.87 138.09c-12.362.234-23.129-8.391-25.599-20.506-2.47-12.115 4.063-24.267 15.53-28.89 11.467-4.624 24.6-.401 31.225 10.039s4.851 24.12-4.216 32.527"/>
        <path stroke="#000" stroke-linecap="round" stroke-linejoin="round" d="M173.13 89.37c1.19 9 4 23 4 23s15.42-2.18 23.12-3.11M199.71 118.7L177.14 112.4M194.88 137.45L193.73 137.86M172.25 141.73L171.03 141.8"/>
        <path fill="#1A2350" fill-rule="nonzero" d="M17 92.57v35.57h36.19l9.45.16.25-35.68L17 92.57zm35.51 3.92c2.148 0 3.89 1.742 3.89 3.89s-1.742 3.89-3.89 3.89-3.89-1.742-3.89-3.89c0-2.133 1.717-3.868 3.85-3.89h.04zM59.63 124c-.43-.13-31.9.11-33.62.29-1.72.18-6 .19-6.22-.55-.22-.74-.1-6.93-.1-6.93 2.15-1.69 10.56-8.91 12.27-10.28 1.71-1.37 8.43 9.21 9 10.28 2.08-1.68 8.92-6.26 9.8-6.89.88-.63 8.86 10.43 8.86 10.43s.44 3.81.01 3.65z" opacity=".1"/>
        <path stroke="#000" stroke-linecap="round" stroke-linejoin="round" d="M16.45 61.33c10.41-1.06 17-14.43 23.2-14.43 6.2 0 7 7.21 12.86 7.21 5.86 0 7.57 5.46 11.75 5.46S75.33 46.9 83 46.9c7.67 0 11.07 19.71 19 19.71s12-13.73 20.58-13.73c8.58 0 11.27 13.73 19 13.73s12.17-6 16.37-6c4.2 0 5.92-3.87 9.25-3.87s5-5.79 7.75-6.68"/>
        <path stroke="#CDDC39" stroke-linecap="round" stroke-linejoin="round" d="M16.45 72.52c10.41-1 16.29-19.82 22.45-19.82s7.77 12.61 13.61 12.61 7.57 9.47 11.75 9.47 11.2-19.1 18.83-19.1c7.63 0 10.92 7 18.79 7 7.87 0 10.88-13.68 19.49-13.68 8.61 0 12.58 24.39 20.36 24.39 7.78 0 12.26-2.8 16.46-2.8 4.2 0 4.49 4.08 7.81 4.08 3.32 0 5.6-9.36 9-9.36"/>
        <path stroke="#000" stroke-linecap="round" stroke-linejoin="round" d="M80.56 127.25s-5.79.32-5.79-.57c0-.89.16-8.11.16-8.11h5.63v8.68zM90.29 127c0 .67-5.63.3-5.63.3v-14.5s4.12-.5 5.63 0c0 .86-.02 13.49 0 14.2zM100 127.25h-5.33s-.11-11.13-.11-16c0-4.87-.19-13.24-.19-13.24H100v29.24zM109.74 127.25s-5.63.43-5.63 0v-25c.57-.37 5.63 0 5.63 0v25zM119.46 127.25h-5.63v-18.71s5.23-.42 5.38-.09c.15.33.25 18.8.25 18.8z"/>
        <rect width="5.79" height="4.21" x="74.63" y="118.57" fill="#000" fill-rule="nonzero" rx="1"/>
        <rect width="5.79" height="4.22" x="84.57" y="112.47" fill="#000" fill-rule="nonzero" rx="1"/>
        <rect width="5.79" height="7.09" x="94.16" y="98.01" fill="#000" fill-rule="nonzero" rx="1"/>
        <rect width="5.79" height="8.92" x="103.89" y="102.46" fill="#000" fill-rule="nonzero" rx="1"/>
        <rect width="5.79" height="6.77" x="113.61" y="108.71" fill="#000" fill-rule="nonzero" rx="1"/>
        <path stroke="#000" stroke-linecap="round" stroke-linejoin="round" d="M1.55 29.62s175.47.24 187.16 0"/>
        <circle cx="8.48" cy="25.07" r="1.58" stroke="#000" stroke-linecap="round" stroke-linejoin="round"/>
        <circle cx="14.87" cy="25.07" r="1.58" stroke="#000" stroke-linecap="round" stroke-linejoin="round"/>
        <circle cx="21.27" cy="25.07" r="1.58" stroke="#000" stroke-linecap="round" stroke-linejoin="round"/>
        <path fill="#1A2350" fill-rule="nonzero" d="M175.47 136.39c-1.22-.002-2.439-.075-3.65-.22.83 2.05 1.69 4.87 2.42 7.42 8.53-.21 15.69-3.92 18.36-9v-4.49c-3.6 3.76-9.89 6.29-17.13 6.29z" opacity=".05"/>
        <path fill="#1A2350" fill-rule="nonzero" d="M169.52 135.79c-7.67-1.57-13.4-6.08-14.19-11.55-1.31 1.695-2.036 3.768-2.07 5.91 0 6.91 7.84 12.61 17.94 13.36-.67-2.84-1.39-5.73-1.68-7.72z" opacity=".1"/>
    </g>
</svg>
