<svg xmlns="http://www.w3.org/2000/svg" xmlns:xlink="http://www.w3.org/1999/xlink" width="1440" height="420" viewBox="0 0 1440 420">
    <defs>
        <linearGradient id="prefix__c" x1="50%" x2="50%" y1="0%" y2="100%">
            <stop offset="0%" stop-color="#FFF"/>
            <stop offset="100%" stop-color="#FFF" stop-opacity="0"/>
        </linearGradient>
        <path id="prefix__a" d="M0 -154H1440V420H0z"/>
    </defs>
    <g fill="none" fill-rule="evenodd">
        <mask id="prefix__b" fill="#fff">
            <use xlink:href="#prefix__a"/>
        </mask>
        <g mask="url(#prefix__b)">
            <g transform="translate(-22 53)">
                <path fill="#1A2350" fill-rule="nonzero" d="M1107.87 322.61l.1-.08-.1.08zM1109.56 321.14l.09-.08-.09.08zM1104.39 325.45l.15-.12-.15.12zM1106.14 324.06l.13-.1-.13.1zM845.83 306.39c106.72 0 106.72 34.86 213.44 34.86h2.41-2.41c-106.72 0-106.72-34.86-213.44-34.86-1.53 0-3 0-4.52-.06 1.48.04 2.99.06 4.52.06zM1102.62 326.78l.17-.12-.17.12zM1081 338l.71-.22-.71.22zM1083.19 337.23l.62-.22-.62.22zM1085.27 336.45l.57-.22-.57.22zM1076.68 339.18l.85-.21-.85.21zM1078.85 338.61l.81-.23-.81.23zM1087.34 335.61l.5-.22-.5.22zM1091.33 333.75l.42-.21-.42.21zM1097.11 330.51l.28-.17-.28.17zM1099 329.32l.24-.15-.24.15zM1095.22 331.64l.32-.18-.32.18zM1089.33 334.72l.48-.22-.48.22zM1093.3 332.72l.36-.19-.36.19zM1100.81 328.08l.21-.14-.21.14zM238.32 321.82l-.84.5.84-.5zM229.87 326.08l-1 .38 1-.38zM227.67 326.89c-.35.13-.7.23-1.06.35.39-.12.71-.24 1.06-.35zM225.44 327.61l-1.11.3 1.11-.3zM234.16 324.14c-.3.16-.61.3-.92.45.31-.15.62-.29.92-.45zM236.26 323l-.88.47.88-.47zM232 325.16l-1 .42 1-.42zM223.17 328.22l-1.17.26 1.17-.26zM251.89 310.89l-.56.57.56-.57zM213.73 329.57c-.77 0-1.54.06-2.32.06.78 0 1.59-.02 2.32-.06zM220.87 328.72c-.41.08-.83.14-1.24.21.37-.07.83-.13 1.24-.21zM1074.48 339.68l.89-.18-.89.18zM216.15 329.4c-.51.05-1 .08-1.53.11.51-.03 1.02-.06 1.53-.11zM218.53 329.12l-1.34.16 1.34-.16zM250 312.7l-.6.57.6-.57zM1269.83 299.75c57.87 0 115.73-26.37 156.59-50.5 20.428 26.911 38.998 55.183 55.58 84.62C1469.45 311.3 1369.64 137 1269.83 137c-80.14 0-100.1 115.17-149 172.52 48.9-3.22 68.86-9.77 149-9.77zM29 357.43l-3.77 1.07 3.77-1.07zM240.35 320.52c-.26.18-.53.35-.8.52.27-.17.54-.34.8-.52zM33.93 356l-.95.26.95-.26zM242.35 319.13c-.25.19-.5.36-.76.54.26-.18.51-.35.76-.54zM246.26 316.09l-.68.56.68-.56zM244.32 317.65l-.72.55.72-.55zM248.17 314.43l-.65.58.65-.58zM1064.93 341c.49 0 1-.07 1.46-.12-.48.12-.97.12-1.46.12zM684.12 229.09c.69.23 1.37.46 2 .7-.63-.24-1.31-.47-2-.7zM687.25 230.19c.7.26 1.41.51 2.1.78-.69-.27-1.35-.52-2.1-.78zM698.06 234.7c.69.32 1.36.65 2 1-.64-.35-1.31-.7-2-1zM690 231.24c2.54 1 5 2.05 7.4 3.16-2.4-1.11-4.84-2.17-7.4-3.16zM680.85 228l2 .64-2-.64zM674 226.13l2.15.56-2.15-.56zM677.46 227.05l2.07.59-2.07-.59zM711 241.67c3.25 2 6.38 4 9.43 6.15-3.05-2.12-6.18-4.18-9.43-6.15zM700.93 236.1c.65.32 1.29.65 1.93 1-.64-.35-1.28-.68-1.93-1zM670.35 225.28c.79.17 1.55.36 2.32.54-.77-.18-1.53-.37-2.32-.54zM720.65 248l2.09 1.49-2.09-1.49zM708.93 240.44l2.06 1.22-2.06-1.22zM706.4 239l1.93 1.1-1.93-1.1zM703.71 237.53l1.91 1-1.91-1zM723 249.64l2.11 1.54-2.11-1.54zM267.32 291.29l-.21.32.21-.32zM265.7 293.74l-.24.36.24-.36zM268.9 288.8l-.15.24.15-.24zM270.46 286.26c-.037.051-.07.104-.1.16.03-.056.063-.109.1-.16zM272 283.66v.07-.07zM421.83 306.39c106.72 0 106.72-78 213.44-78 11.764.077 23.51-.955 35.08-3.08-11.53-2.455-23.292-3.648-35.08-3.56-106.72 0-106.72-215.84-213.44-215.84-78.43 0-97.62 184.74-148.32 275.12 50.69 8.31 69.89 25.36 148.32 25.36zM264.07 296.12c-.1.13-.19.27-.29.41.1-.14.22-.28.29-.41zM255.51 307c-.16.18-.33.36-.49.55.16-.16.32-.34.49-.55zM257.27 305l-.45.54.45-.54zM253.72 309l-.54.56.54-.56zM260.72 300.68c-.12.17-.24.33-.37.49.13-.17.25-.32.37-.49zM259 302.87l-.41.51.41-.51zM262.41 298.43l-.33.45.33-.45zM756.63 275.86l2.37 1.74-2.37-1.74zM815.31 303.59c1.2.23 2.41.45 3.64.66-1.23-.25-2.44-.43-3.64-.66zM824.31 305l2.51.31-2.51-.31zM811.53 302.79c1.21.27 2.43.53 3.67.78-1.2-.25-2.46-.51-3.67-.78zM820.18 304.44l2.64.41-2.64-.41zM804.51 301l2.21.61-2.21-.61zM801.11 300c.69.23 1.4.44 2.11.65-.71-.26-1.42-.47-2.11-.65zM725.24 251.27c10.79 7.94 20.7 16.53 31.3 24.52-10.6-7.99-20.54-16.58-31.3-24.52zM828.43 305.52c.833.093 1.673.173 2.52.24-.847-.067-1.687-.147-2.52-.24zM1069.83 340.51l1.12-.16-1.12.16zM1062.39 341.18c.55 0 1.11 0 1.67-.08-.56.04-1.12.06-1.67.08zM1067.39 340.81l1.3-.14-1.3.14zM836.9 306.16c1 0 2 .09 3 .12-1.01-.03-2.01-.07-3-.12zM832.62 305.89c.87.07 1.76.13 2.65.18-.89-.07-1.78-.07-2.65-.18zM808 301.93c.82.21 1.66.41 2.51.61-.87-.2-1.71-.4-2.51-.61zM761.88 279.71l2.19 1.54-2.19-1.54zM797.76 298.84c.69.24 1.39.48 2.1.71-.71-.23-1.41-.47-2.1-.71zM772.89 287c.7.43 1.42.86 2.14 1.28-.72-.43-1.44-.86-2.14-1.28zM1072.17 340.13c.34-.06.68-.11 1-.18-.32.05-.66.12-1 .18zM759.31 277.85l2.15 1.56-2.15-1.56zM775.81 288.72l1.94 1.1-1.94-1.1zM764.44 281.51c2.58 1.78 5.21 3.5 7.92 5.17-2.71-1.68-5.36-3.39-7.92-5.17zM778.66 290.32c.63.34 1.27.69 1.91 1l-1.91-1zM787.33 294.66c1 .46 2 .91 3.06 1.34-1.03-.43-2.05-.88-3.06-1.34zM794.36 297.59c.75.29 1.49.57 2.25.84-.76-.27-1.5-.55-2.25-.84zM790.4 296c1 .42 2 .84 3.06 1.24-1.03-.39-2.05-.81-3.06-1.24zM784.39 293.28c.76.37 1.53.73 2.3 1.08-.77-.36-1.54-.71-2.3-1.08zM781.5 291.83l2 1-2-1z" opacity=".1"/>
                <path fill="#CDDC39" fill-rule="nonzero" d="M1418.79 253.66l-.49.28.49-.28zM1374.66 275.62l-1.49.63 1.49-.63zM1422.65 251.45l-.29.17.29-.17zM1414.81 255.89l-.58.33.58-.33zM1383.77 271.6l-.68.31.68-.31zM1406.48 260.41l-.56.29.56-.29zM1379.24 273.63l-1.19.53 1.19-.53zM1402.05 262.72l-.38.19.38-.19zM1410.72 258.14l-.62.33.62-.33zM1226.26 300.53h.87-.87zM1222.85 300.67h.88-.88zM1212.61 301.19h.76-.76zM1215.74 301h.78-.78zM1206.08 301.59h.67-.67zM1250.33 299.89h1.1-1.1zM1234 300.26h.94-.94zM1237.74 300.15h1-1zM1246.26 300h1.08-1.08zM1303.39 297l-2.26.35 2.26-.35zM1298.2 297.74l-2.27.3 2.27-.3zM1313.71 295.09l-2.18.43 2.18-.43zM1293 298.39l-2.25.25 2.25-.25zM1370 277.57l-1.65.67 1.65-.67zM1318.82 294l-2.08.45 2.08-.45zM1287.69 298.92l-2.19.2 2.19-.2zM1483.27 336.27V210.09s-22.37 18.79-56.85 39.16c20.99 27.62 39.989 56.701 56.85 87.02zM1276.78 299.61l-1.72.06 1.72-.06zM1282.34 299.33l-2.06.13 2.06-.13zM1308.57 296.08l-2.24.4 2.24-.4zM1323.91 292.81l-1.88.44 1.88-.44zM1355.68 283.12l-1.84.66 1.84-.66zM1350.76 284.86l-1.82.63 1.82-.63zM1365.3 279.47l-1.75.69 1.75-.69zM1360.52 281.32l-1.81.69 1.81-.69zM1334.11 290.11h-.08.08zM1329 291.52l-1.37.35 1.37-.35zM1340.46 288.22l-1.43.45 1.43-.45zM1345.72 286.55l-1.72.56 1.72-.56zM1135.8 308.4l1.29-.12-1.29.12zM403.9 306.06l4 .14-4-.14zM399.94 305.9l2.9.12-2.9-.12zM395.44 305.66l3.42.19-3.42-.19zM391.49 305.41l3.66.24-3.66-.24zM387.88 305.14c.91.08 1.83.14 2.76.21-.93-.07-1.85-.13-2.76-.21zM211.28 329.63c26.1 0 45.82-19.37 62.23-48.63 29.7 4.88 48.59 12.76 74.91 18.44-40.87-8.83-63.81-22.94-137.14-22.94C104.56 276.5.72 306.39.72 306.39v59.77s103.84-36.53 210.56-36.53zM383.86 304.8c1 .1 2.05.18 3.09.27-1.04-.07-2.07-.17-3.09-.27zM642.71 228.22l2.19-.07-2.19.07zM413.12 306.31l3.17.05-3.17-.05zM408 306.2c1.29 0 2.61.07 3.94.09-1.33-.02-2.65-.05-3.94-.09zM373.19 303.65l2.88.35-2.88-.35zM360.17 301.72c1 .18 2 .34 3 .51-1-.17-2-.33-3-.51zM357.32 301.22l2.71.48-2.71-.48zM363.33 302.25l2.78.43-2.78-.43zM348.54 299.47c2.71.58 5.5 1.14 8.39 1.68-2.93-.54-5.68-1.1-8.39-1.68zM369.77 303.21l3.17.41-3.17-.41zM648.26 228l1.21-.06-1.21.06zM366.71 302.77l2.62.37-2.62-.37zM376.86 304.09l2.64.29-2.64-.29zM380.16 304.45l3.38.32-3.38-.32zM1139.13 308.1l1.09-.11-1.09.11zM1149.4 307.08l.65-.07-.65.07zM1178.41 304h.18-.18zM1180.93 303.69h.2-.2zM1147.26 307.3l.67-.07-.67.07zM1143.82 307.65l.8-.08-.8.08zM1186.18 303.19h.41-.41zM1194.39 302.46h.56-.56zM1197.13 302.24h.55-.55zM1188.78 303h.41-.41zM1141.53 307.87l1-.09-1 .09zM1127.3 309.1l2.09-.16-2.09.16zM421.83 306.39c106.72 0 106.72-78 213.44-78 1.66 0 3.29 0 4.9-.06-1.61 0-3.24.06-4.9.06-106.72 0-106.72 78-213.44 78h-4.34 4.34zM845.83 306.39c106.72 0 106.72 34.86 213.44 34.86 25.86 0 45.28-12.66 61.51-31.69-16.23 1.09-35.65 1.81-61.51 1.81-106.72 0-106.72-156.06-213.44-156.06-91 0-102.25 56.1-175.48 70 73.23 16.05 84.48 81.08 175.48 81.08zM1203.17 301.79l.65-.05-.65.05zM658.06 227.13h.14-.14zM1121.84 309.49l1.62-.11-1.62.11zM1124.67 309.29l1.47-.1-1.47.1zM1130.69 308.83l1.41-.11-1.41.11zM1133.33 308.61l1.24-.1-1.24.1zM653.43 227.59h.47-.47z"/>
                <path stroke="#000" stroke-linecap="round" stroke-linejoin="round" d="M1483.27 336.27S1376.55 137 1269.83 137s-106.72 204.21-210.56 204.21c-106.72 0-106.72-34.86-213.44-34.86-103.83.04-103.83-84.63-210.55-84.63-106.72 0-106.73-215.84-213.45-215.84C318 5.88 318 329.63 211.28 329.63 104.56 329.63.72 366.16.72 366.16"/>
                <path stroke="#000" stroke-linecap="round" stroke-linejoin="round" d="M1483.27 210.09s-106.72 89.66-213.44 89.66-106.72 11.62-210.56 11.62c-106.72 0-106.72-156.06-213.44-156.06-103.83 0-103.83 73.05-210.55 73.05-106.72 0-106.73 78-213.45 78C318 306.39 318 276.5 211.28 276.5 104.56 276.5.72 306.39.72 306.39"/>
                <path fill="#FFF" fill-rule="nonzero" stroke="#000" d="M216.33 276.5c0 2.79-2.26 5.054-5.05 5.06-2.79 0-5.92-2.7-5.51-5.46.41-2.76 3.2-6.17 6-5.76 2.8.41 4.56 3.37 4.56 6.16zM426.89 306.39c-.12 2.704-2.348 4.835-5.055 4.835s-4.935-2.13-5.055-4.835c0-2.79 3.23-5.61 6-5.06 2.486.346 4.281 2.556 4.11 5.06h0zM216.21 330.82c-.388 1.763-1.686 3.185-3.407 3.731-1.72.546-3.602.133-4.935-1.085-1.333-1.217-1.916-3.053-1.528-4.816.6-2.73 4-4.3 6.71-3.7 2.71.6 3.76 3.14 3.16 5.87zM850.92 304.67c1.19 2.53-.8 6-3.33 7.16-2.506 1.079-5.416-.023-6.579-2.491-1.162-2.469-.159-5.414 2.269-6.659 2.53-1.19 6.45-.53 7.64 1.99zM850.45 157c0 2.79-2.27 6.06-5.06 6.06-2.79 0-5-3.27-5-6.06.12-2.704 2.348-4.835 5.055-4.835s4.935 2.13 5.055 4.835h-.05zM1064.45 312c.083 1.86-.862 3.614-2.46 4.569-1.598.955-3.592.955-5.19 0-1.598-.955-2.543-2.71-2.46-4.569 0-2.79 3-5.05 5.82-5.05 2.82 0 4.29 2.3 4.29 5.05z"/>
                <ellipse cx="1059.62" cy="342.12" fill="#FFF" fill-rule="nonzero" stroke="#000" rx="5.28" ry="4.98"/>
                <path fill="#FFF" fill-rule="nonzero" stroke="#000" d="M1274.18 139.06c-1.35 2.44-5.12 3.84-7.56 2.49-2.44-1.35-2.63-5-1.27-7.4 1.356-2.438 4.432-3.316 6.87-1.96 2.438 1.356 3.316 4.432 1.96 6.87zM1274.88 300.26c0 2.37-2.26 5.28-5.05 5.28s-5.06-2.91-5.06-5.28 2.27-4.27 5.06-4.27c2.79 0 5.05 1.91 5.05 4.27zM640.45 222c.083 1.86-.862 3.614-2.46 4.569-1.598.955-3.592.955-5.19 0-1.598-.955-2.543-2.71-2.46-4.569-.064-1.576.62-3.09 1.844-4.084 1.225-.994 2.847-1.352 4.376-.966 2.75.56 3.89 2.3 3.89 5.05z"/>
                <path fill="#FFF" fill-rule="nonzero" stroke="#000" d="M640.45 229c-.006 2.792-2.268 5.054-5.06 5.06-2.79 0-4.95-3.29-4.95-6.08s2.16-4 4.95-4c2.779 0 5.038 2.241 5.06 5.02h0zM426.89 6.39c-.12 2.704-2.348 4.835-5.055 4.835s-4.935-2.13-5.055-4.835c0-2.79 1.53-5.82 4.33-5.82s5.78 3.03 5.78 5.82z"/>
            </g>
        </g>
        <path fill="url(#prefix__c)" d="M0 0H1440V420H0z" mask="url(#prefix__b)"/>
    </g>
</svg>
