<svg xmlns="http://www.w3.org/2000/svg" width="256" height="256" viewBox="0 0 256 256">
    <g fill="none" fill-rule="evenodd" transform="translate(11 44)">
        <path fill="#1A2350" fill-rule="nonzero" d="M78 92.87c.79-3.67 1.27-22.24 2.53-22.5 1.26-.26 2.4 15.22 2.77 18.46.37 3.24-.4-21.94 1.11-23.23 1.51-1.29-1.76-1.89-3.88-.8C77.21 67.22 78 92.87 78 92.87zM80.48 63c5-1.65 86-31.31 88.73-30.22 1.74.7 2.31 8.73 2.16 8.72-1.43-.12-80 24.06-80 24.06L80.48 63z" opacity=".1"/>
        <path stroke="#000" stroke-linecap="round" stroke-linejoin="round" d="M110.31 52.33c-13.39.16-28.75 1.21-43.06 2.23"/>
        <path fill="#1A2350" fill-rule="nonzero" d="M191.29 54.56c.33 6.91 5.77 25.13 5.77 25.13l-3.8 11.11s-6-36.07-4.06-36.24c1.94-.17 2.09 0 2.09 0z" opacity=".1"/>
        <path stroke="#000" stroke-linecap="round" stroke-linejoin="round" d="M195.33 87.64c1.82-7.94 4.23-20.4 5.31-25.39 1.16-5.42-2.26-10.68-10.85-9.36M167.16 158.07c-1.6-7.77-3.14-39-5.9-61.51-.94-7.68-.36-13.29-1.21-18-1.37-7.61-3.06-10.45-5.2-11.43-5.87-2.68-49.93-2.39-66.63-2.16-11.92.16-19.79-.56-25.63-11.87-2.82-5.47-16.78-4.71-30.8-4.4C16.78 49 .4 49 .2 53.22 0 57.44.51 66.85 2.6 81.71c.66 4.68 2.46 11.51 3.17 16.83 2.95 22.24 6 49.32 11.28 67 48.06.5 106.53-.36 154.58.14.901.11 1.812-.095 2.58-.58.546-.545.915-1.242 1.06-2 1.62-5.22 3.3-11.06 5-17.25"/>
        <path stroke="#000" stroke-linecap="round" stroke-linejoin="round" d="M168.83 147.67c10-3.13 31.11-9.92 36.62-11.24 0 0-6.37-22.7-11.67-43.49-3.59-14.07-4-27.23-4.75-30.59-1.81-8.25-4.09-22.54-4.09-22.54S107.05 61.54 97.38 64M82.23 62.35c29.49-8.48 56.37-20.49 84.38-30.25l1.39 5.1"/>
        <circle cx="30.29" cy="20.24" r="4" fill="#1A2350" fill-rule="nonzero" opacity=".05"/>
        <circle cx="138.75" cy="16.24" r="2" fill="#1A2350" fill-rule="nonzero" opacity=".05"/>
        <path fill="#1A2350" fill-rule="nonzero" d="M92.473 2.499H100.963V10.989H92.473z" opacity=".05" transform="rotate(45 96.718 6.744)"/>
        <path fill="#CDDC39" fill-rule="nonzero" d="M221.92 107.93c-1.87.5-5.6 4-6.08 5.09-.48 1.09 1.89 3.68 2.66 3.63.77-.05 1.22-1.54 1.22-1.54l.36 9.64s2.24 2.49 6.85 2.31c4.61-.18 2.24-7 2.66-7.16.42-.16 2.92.3 4.09-.52 3.38-2.35-2.71-11.15-5.09-11.81-2.22-.62-.56 1.63-2.79 1.54-1.37-.075-2.7-.48-3.88-1.18z"/>
        <path stroke="#000" stroke-linecap="round" stroke-linejoin="round" d="M228.87 120.9s3.5-1.08 4.33-1.3c.83-.22-.37-4.49-1.39-7.2s-2.64-2.78-5.06-4.47c0 0-1.36 2.35-3.39 2.24-2.03-.11-1.46-2.24-1.46-2.24M221.82 107.57c-.938.239-1.862.526-2.77.86-.64.3-4.65 4.37-4.65 5 0 .63 2.91 3.63 2.91 3.63l1.41-2"/>
        <path stroke="#000" stroke-linecap="round" stroke-linejoin="round" d="M228.58 114.67c.06 2.15-.22 9.73-.22 10.5-.77.61-7.13.88-9.31 0-.75-2.36-.14-10.39-.64-12.15"/>
        <path fill="#000" fill-rule="nonzero" stroke="#000" stroke-linecap="round" stroke-linejoin="round" d="M226.37 107.93c-.16-1.3-.57-2.49-.32-2.82.25-.33 3.83-4 2.66-6.31-1.17-2.31-6.3-3.8-6.89-3.41-.59.39-1.69 2.42-.42 2.85 1.27.43 3.92 1 3.45 1.9-.521.84-.862 1.78-1 2.76.2.5.61-.06 1-.57s1.34.19.72 1c-.361.685-.454 1.48-.26 2.23"/>
        <path stroke="#000" stroke-linecap="round" stroke-linejoin="round" d="M221.19 98.86c-.502.875-1.089 1.699-1.75 2.46-.34.24.34.48.56.67.22.19-.7 1.94-.59 2.35.11.41 1.8.91 2.25 1.08l.47 2.15M228.36 125.17c.32 3 2.9 36.55 2.86 37.92-.15.35-3.73 1.56-3.87 0-.14-1.56-4.12-24.33-4.52-25.11-.4-.78-2 9.43-1.91 10.55.1 1.72-.33 13.58 0 14.17.33.59-3.31.74-3.38-.59-.39-2.54-.59-18-.39-21.2.2-3.2 1.9-15.74 1.9-15.74M231.19 164.19c.19 1.22.62 2.36.34 2.36-.942.181-1.904.232-2.86.15-.4.18-5.41.85-4.65 0 .76-.85 3.67-2.11 3.76-2.51M221.19 163.74c.18 1.22.37 2.06.1 2.06-.925.18-1.87.23-2.81.15-.39.18-5.31.85-4.57 0 .74-.85 3.44-1.76 3.7-2.51M200 113.4c.88.42 2.59.51 3 .71.68.37 7.91 5.78 9.8 5.79 1.68 0 3-1.69 4.27-2.81M214.4 113.46l-2.4 2.33s-7.3-2.83-8.24-3.46c-.926-.713-1.933-1.314-3-1.79-.78-.21-3.41.37-2 1.37.705.475 1.448.893 2.22 1.25M229.9 122.05c.19 2.37.52 9.07-.09 11.47-.61 2.4 1.62 2.88 2.39-.37.034-1.075-.006-2.15-.12-3.22 0-3.72.52-8.79.33-10M95.06 52.33c-8.22-3.86-12.24 10-12.45 14.69-.66 15.15.86 26 3.49 40.91 2.51 14.21 6 32.56 11.36 45.94 1.9 4.73 3.52 8.85 6.8 12.75.603.539 1.471.66 2.2.31"/>
        <path stroke="#000" stroke-linecap="round" stroke-linejoin="round" d="M99.64 52.25c-4.36-4.06-22.76 9.83-22.83 16.16-.12 11.59-.24 23.18.48 34.74.69 11.07 2.16 22.08 3.62 33.07 1.56 11.74 7.81 32.67 9.85 30.56"/>
        <path stroke="#000" stroke-linecap="round" stroke-linejoin="round" d="M86.18 55.7c-.35-2.89-2.36-5.3-4.54-7.22-3.13-2.899-6.958-4.939-11.11-5.92-1-.2-6.94 0-3.15 3.68 3.08 3 5.47 6.51 9.36 8.32 3.32 1.54 15.39 1.83 19 1.55"/>
        <path stroke="#000" stroke-linecap="round" stroke-linejoin="round" d="M85.29 56.22c-.284-4.058.77-8.098 3-11.5 2.38-3.28 6.52-5.42 10.5-4.69.385.058.758.183 1.1.37 1.27.76 1.35 2.58 1 4-.844 2.667-2.536 4.985-4.82 6.6-2.282 1.593-4.78 2.85-7.42 3.73-6.254 2.188-12.662 3.91-19.17 5.15"/>
        <path fill="#1A2350" fill-rule="nonzero" d="M172.58 162.56c1.83-.48 6.7-15.52 6.7-16.72 0-1.2-8.64 3.71-11 4.68-2.36.97 2.48 12.53 4.3 12.04z" opacity=".1"/>
    </g>
</svg>
