<svg xmlns="http://www.w3.org/2000/svg" width="96" height="96" viewBox="0 0 96 96">
    <g fill="none" fill-rule="evenodd" transform="translate(8 14)">
        <path stroke="#000" stroke-linecap="round" stroke-linejoin="round" stroke-width="2" d="M.71 9.82L45.68 9.82M65 9.58c4.75 0 15.11.25 14.93.56M26.12 23.4c-.06 3.42 0 8.75.13 12.17 0 .14 11.11-.41 11.13-.55.48-4.24.71-8.503.69-12.77 0-.23-8.72.15-12.69 1M24.38 28H5.57c-1.437-.083-2.878.08-4.26.48M39.79 28.13c13.567-.48 27.143-.347 40.73.4M32.47 56c-1.2 14.59 11.35 13.7 16.29 5.58C53.33 54 37.19 39 32.47 56M64.81 52c-.67-.18-5.85 19.22 9.39 11.33 9.4-4.87-5.31-19.49-12-10"/>
        <circle cx="14.99" cy="57.76" r="7.67" fill="#CDDC39" fill-rule="nonzero"/>
        <path stroke="#000" stroke-linecap="round" stroke-linejoin="round" stroke-width="2" d="M3.91 50.51c-1.16 16.15 15.34 21.54 17.52 9.4 1.29-7.17-10.69-17.21-17.1-6"/>
        <path fill="#CDDC39" fill-rule="nonzero" d="M63.56 17.38l-11.89.43c-.88 0-1.45-1.44-1.43-2.32l.24-11.23c.022-.88.75-1.577 1.63-1.56l12.5-.27c.88 0 .85 1.28.83 2.16l-.25 11.22c-.022.881-.748 1.581-1.63 1.57z"/>
        <path stroke="#000" stroke-linecap="round" stroke-linejoin="round" stroke-width="2" d="M47.89.09c-.207 5.072-.093 10.152.34 15.21 4.51.18 14.05-.18 14.05-.28.19-3.28.64-11.72.23-12.53-.64-1.24-11.28-2.62-15-1.43"/>
    </g>
</svg>
