<svg xmlns="http://www.w3.org/2000/svg" width="256" height="256" viewBox="0 0 256 256">
    <g fill="none" fill-rule="evenodd" transform="translate(11 52)">
        <path fill="#1A2350" fill-rule="nonzero" d="M172.68 107.85c-13 .11-133.5 0-167.94 0-1.048-.001-2.036.489-2.67 1.323-.634.834-.842 1.917-.56 2.927l1 3.49c.354 1.283 1.54 2.159 2.87 2.12 19.52-.66 157.59-.1 167.33 0 10.37.07 13.65-9.98-.03-9.86zm-164 6.9c-.928-.062-1.719-.694-1.986-1.584-.267-.89.046-1.853.786-2.416.842-.67 1.968-.86 2.983-.505 1.015.355 1.777 1.207 2.017 2.255.05 1.5-1.73 2.5-3.84 2.25h.04zm13.19.19c-2.35.31-5-1.23-4-3.64 1.15-2.74 6.62-.76 7.2.64.58 1.4-.88 2.69-3.24 3h.04zm11.49-.19c-2-.72-5-2.63-1.93-3.78 2-.76 5 .1 5.11 1.48.075.811-.286 1.602-.95 2.075-.662.474-1.527.56-2.27.225h.04zm11 0c-.93-.059-1.724-.689-1.994-1.58-.27-.891.043-1.856.784-2.42.843-.664 1.967-.852 2.98-.497s1.775 1.202 2.02 2.247c0 1.5-1.78 2.5-3.88 2.25h.09zm15.06-1.26c-.69 1.24-5.53 2-6 0-.4-1.63.19-2.74 2.93-3.38 2.21-.54 3.65 2.14 2.98 3.38h.09zM71.4 113c-.57 1.4-6 3.37-7.19.63-1-2.4 1.66-3.94 4-3.63 2.34.31 3.79 1.57 3.19 3zm6.37 1c-2.48-2.06 0-3.05 1.94-3.77.737-.314 1.585-.22 2.236.249.65.468 1.008 1.242.944 2.041-.13 1.32-3.2 3.01-5.12 1.41v.07zm11.68.19c-.752-.558-1.073-1.529-.802-2.426.271-.896 1.076-1.526 2.012-1.574 2.1-.28 3.88.78 3.81 2.21-.245 1.05-1.013 1.9-2.034 2.25-1.02.35-2.148.15-2.986-.53v.07zm13.19.67c-2.74-.64-3.33-1.75-2.94-3.38.49-2 5.32-1.24 6 0 .68 1.24-.76 3.85-3.06 3.31v.07zM117 113c-.57 1.4-6.05 3.37-7.19.63-1-2.4 1.65-3.94 4-3.63 2.35.31 3.8 1.57 3.19 3zm8.63 1.54c-.707.35-1.543.318-2.22-.086-.678-.405-1.103-1.126-1.13-1.914-.11-1.75 2.61-3.39 5-1.87 2.72 1.67.3 2.97-1.61 3.84l-.04.03zm9.41-.39c-.752-.558-1.073-1.529-.802-2.426.271-.896 1.076-1.526 2.012-1.574 2.1-.28 3.88.78 3.82 2.21-.06 1.43-2.42 3.51-4.99 1.76l-.04.03zm13.19.67c-2.74-.64-3.32-1.75-2.93-3.38.49-2 5.32-1.24 6 0 .68 1.24-.72 3.89-3.03 3.35l-.04.03zm12.22.15c-2.36.31-5-1.23-4-3.64 1.14-2.74 6.62-.76 7.19.64.57 1.4-.8 2.66-3.15 2.97l-.04.03zm11.48-.19C170 114 167 112.12 170 111c2-.76 5 .1 5.12 1.48.041.778-.314 1.524-.944 1.982-.63.459-1.449.567-2.176.288l-.07.03z" opacity=".1"/>
        <circle cx="154.58" cy="21.2" r="4" fill="#1A2350" fill-rule="nonzero" opacity=".05"/>
        <circle cx="110.46" cy="2.33" r="2" fill="#1A2350" fill-rule="nonzero" opacity=".05"/>
        <path fill="#1A2350" fill-rule="nonzero" d="M43.348 24.615H51.838V33.105H43.348z" opacity=".05" transform="rotate(45 47.593 28.86)"/>
        <path fill="#CDDC39" fill-rule="nonzero" d="M228.1 93.75c-1.73-.5-2.27.72-2.22 4.16.05 3.44.79 26.77.79 27.79 0 1.02 3.14.67 3.72.62.58-.05 0-1.87 0-1.87s-.81-8.92-.46-8.92c.35 0 3.29.11 3.63.11.34 0-.23-14-.23-15.28 0-1.28-1.33-5.48-5.23-6.61zM206.65 97.85c-1.07-.64-1.71-.36-2.29.75-.35.68-.24 1.35 1.35 2 3 1.28 7.33 5.19 9.93 2.78 2.6-2.41 3.61-2.4 3.61-2.4s-1.85 25.56-2.57 26.55c-.72.99 2.6 1.06 3.27.1.67-.96 1.1-31.33 1.16-33.14.06-1.81-.05-2.09-2.25.06s-7 6.36-7 6.36l-5.21-3.06z"/>
        <path stroke="#000" stroke-linecap="round" stroke-linejoin="round" d="M.34 107.85c26.84 0 184.66.12 198.34 0 13.68-.12 10.4 9.93 0 9.84-10.4-.09-192.82-.69-195.58.16M188.66 117.85c.28 7.79.74 33.87.74 33.87h2.6v-33.39M166.72 117.85c.29 7.79.75 33.87.75 33.87H170v-33.39"/>
        <path stroke="#000" stroke-linecap="round" stroke-linejoin="round" d="M170 111c2-.76 5 .1 5.12 1.48.064.801-.296 1.578-.948 2.048-.652.47-1.502.566-2.242.252C170 114 167 112.12 170 111zM156.48 111.3c1.14-2.74 6.62-.76 7.19.64.57 1.4-.83 2.69-3.18 3-2.35.31-5.02-1.23-4.01-3.64zM148.27 114.79c2.31.54 3.77-2.13 3.08-3.38s-5.52-2-6 0c-.35 1.59.18 2.74 2.92 3.38zM135.08 114.12c2.57 1.75 5-.31 5-1.75s-1.72-2.49-3.82-2.21c-.91.077-1.678.703-1.939 1.578-.26.875.04 1.82.759 2.382zM127.31 110.59c-2.38-1.52-5.1.12-5 1.87.027.788.452 1.51 1.13 1.914.677.404 1.513.437 2.22.086 1.92-.82 4.34-2.12 1.65-3.87zM109.85 113.6c1.14 2.74 6.62.77 7.19-.63.57-1.4-.83-2.69-3.18-3-2.35-.31-5.02 1.23-4.01 3.63zM102.64 114.79c2.3.54 3.76-2.13 3.07-3.38s-5.52-2-6 0c-.4 1.59.19 2.74 2.93 3.38zM89.45 114.12c.842.67 1.968.86 2.983.505 1.015-.355 1.777-1.207 2.017-2.255.07-1.43-1.71-2.49-3.81-2.21-.911.074-1.684.699-1.947 1.574-.263.875.038 1.822.757 2.386h0zM77.77 113.93c1.92 1.6 5-.09 5.12-1.48.064-.799-.294-1.573-.944-2.041-.65-.469-1.499-.563-2.236-.249-1.98.72-4.42 1.71-1.94 3.77zM64.21 113.6c1.15 2.74 6.62.77 7.19-.63.57-1.4-.82-2.69-3.18-3-2.36-.31-5.02 1.23-4.01 3.63zM56.25 110.11c2.31-.54 3.77 2.14 3.08 3.38-.69 1.24-5.53 2-6 0-.41-1.63.18-2.74 2.92-3.38zM43.06 110.78c.843-.664 1.967-.852 2.98-.497s1.775 1.202 2.02 2.247c.06 1.43-1.72 2.5-3.82 2.22-.908-.083-1.675-.711-1.934-1.585-.26-.875.038-1.82.754-2.385zM7.44 110.78c.842-.67 1.968-.86 2.983-.505 1.015.355 1.777 1.207 2.017 2.255.07 1.43-1.71 2.5-3.82 2.22-.908-.083-1.675-.711-1.934-1.585-.26-.875.038-1.82.754-2.385h0zM31.39 111c2-.76 5 .1 5.11 1.48.068.8-.289 1.578-.94 2.049-.65.47-1.5.566-2.24.251-1.97-.78-4.95-2.66-1.93-3.78zM17.82 111.3c1.15-2.74 6.62-.76 7.2.64.58 1.4-.83 2.69-3.19 3-2.36.31-5.01-1.23-4.01-3.64zM175.16 107.85c5.88 0 9.94 9.77 0 9.73"/>
        <path fill="#CDDC39" fill-rule="nonzero" d="M80.66 68c-.019-.422-.213-.816-.536-1.088-.323-.271-.745-.396-1.164-.342-12 1.45-19.93 15.28-19.33 23 .61 8.09 11.19 18 21.81 16.58 10.62-1.42 13.23-5.42 14-6.85.77-1.43-15.1-11.5-15.1-11.5s.55-14.89.32-19.8z"/>
        <path stroke="#000" stroke-linecap="round" stroke-linejoin="round" d="M76.53 108c-9.98-1.439-17.511-9.798-17.903-19.874-.391-10.077 6.467-18.996 16.306-21.205 9.839-2.209 19.852 2.922 23.805 12.199 3.954 9.276.72 20.053-7.688 25.62-3.41 2.28-5.36 3.26-9 3.26"/>
        <path stroke="#000" stroke-linecap="round" stroke-linejoin="round" d="M79.17 68.2c-.23 7.37.17 19 .17 19s12.58-2 19-2.32M95.28 97.94L79.34 87.24M105.89 106.93c.39-8.08 0-48.9 0-48.9s28.72-.83 32.4-.61c.76 9.79.33 30.38.33 30.38M120.46 57.38c.51-1.75.59-5.8 1.86-6 1.575-.089 3.155-.089 4.73 0l.84 5.32M116.58 57.77c.11 4.64.62 46.82.59 49.16"/>
        <path fill="#000" fill-rule="nonzero" stroke="#000" stroke-linecap="round" stroke-linejoin="round" d="M128.27 97.87c0-5.562 4.508-10.07 10.07-10.07v-30h-23v50.08h21.76c-5.052-.622-8.843-4.92-8.83-10.01z"/>
        <circle cx="138.34" cy="97.87" r="10.06" stroke="#000" stroke-linecap="round" stroke-linejoin="round"/>
        <path stroke="#000" stroke-linecap="round" stroke-linejoin="round" d="M199.06 100c0 4.435-3.595 8.03-8.03 8.03-4.435 0-8.03-3.595-8.03-8.03 0-4.443 3.602-8.045 8.045-8.045s8.045 3.602 8.045 8.045h-.03z"/>
        <path stroke="#000" stroke-linecap="round" stroke-linejoin="round" d="M193.46 102.41c-1.367 1.38-3.594 1.392-4.975.025-1.38-1.367-1.392-3.594-.025-4.975.884-.893 2.178-1.247 3.393-.928 1.216.32 2.169 1.263 2.5 2.475.332 1.213-.009 2.51-.893 3.403h0zM138.34 88.99L138.34 97.38 145.23 102.21"/>
        <path stroke="#000" stroke-linecap="round" stroke-linejoin="round" d="M146.78 95.6L138.34 97.38 142.56 105.07M157.81 107.68V96.13s3.25-.33 4 0M165.91 97.93c.86-.06 4 0 4 0v9.75h-4"/>
        <path stroke="#000" stroke-linecap="round" stroke-linejoin="round" d="M169.87 100.17c1.328-.17 2.672-.17 4 0 .17 3 0 7.51 0 7.51h-4M165.91 107.68h-4V91.16c1.33-.141 2.67-.141 4 0v16.52z"/>
        <path fill="#1A2350" fill-rule="nonzero" d="M130.72 106.21c1.14-3.75 3.36-8 4.11-10.22.75-2.22 3.16-6.06 3.51-8.19.35-2.13-12.17-4.8-12.17-4.8s-5.74 13.84-1.51 17.69c4.23 3.85 6.06 5.52 6.06 5.52z" opacity=".05"/>
        <path stroke="#000" stroke-linecap="round" stroke-linejoin="round" d="M43.7 80.93c-2.38 1-6.76 2.71-8.54 3.71-2.68-.85-8-3.31-8.6-3.42-.6-.11-3.8 1.82-5.19 3.13-.88.84-8.2-9.86-9.89-9.72C9.79 74.77 2 78.57 2 78.57"/>
        <path stroke="#000" stroke-linecap="round" stroke-linejoin="round" d="M2 68.2c4.38-1.76 9.39-5 10.44-5 1.05 0 7.11 11.62 7.7 11.44.59-.18 6.66-1.53 6.66-1.53s7.25 6.07 8.14 6.07c1.33-1 10.27-3 10.91-3 .64 0 0 31.64 0 31.64"/>
        <path stroke="#000" stroke-linecap="round" stroke-linejoin="round" d="M2 92.59c5.86-3.6 8.37-5.38 8.37-5.38s10 3.37 11 4c1-.38 5-2.25 5-2.25l8.14.91s8.22-2.79 9.17-3.23"/>
        <path fill="#1A2350" fill-rule="nonzero" d="M3.89 92.73c2.52-1.64 5.201-3.02 8-4.12 0 0 8.86 3 9.87 3.66 1-.38 5-2.25 5-2.25l8.14.91s6.29-2.15 9-3.15c.662-.24 1.025-.953.83-1.63l-.69-2.4c.001-.396-.197-.767-.527-.986-.33-.22-.748-.258-1.113-.104-2.39 1-5.48 2.21-6.9 3-2.68-.85-8-3.31-8.6-3.42-.6-.11-3.8 1.82-5.19 3.13-.88.84-8.2-9.87-9.89-9.72-1.25.1-6.6 2.22-9.3 3.32-.94.376-1.513 1.334-1.4 2.34L2.2 91.93c.019.39.252.74.605.907.354.167.77.126 1.085-.107z" opacity=".1"/>
        <path stroke="#000" stroke-linecap="round" stroke-linejoin="round" d="M221.11 95.23c-.07 2.39-2.11 31-2.16 32.43-1.43 0-2.48.22-3.27-.1.91-6.05 3-27.63 2.54-29.39M224.93 110.84c-.8 0-3.7.06-4.54 0M228.39 99.82c0 1.41.58 12.37 1.16 20 .3 3.94.84 7 .84 7.23-1.513.424-3.07.665-4.64.72 0 0-.82-31.65-.82-32.49"/>
        <path fill="#000" fill-rule="nonzero" stroke="#000" stroke-linecap="round" stroke-linejoin="round" d="M226 90.12c-.496-.596-.752-1.355-.72-2.13.2-1-.93-1.25-1.09-.6-.16.65-.28 1.32-.68 1-.296-.943-.395-1.937-.29-2.92 0-1-2.61-.38-3.93-.22-1.32.16-1.23-2.15-.86-2.76.37-.61 5.64-1.46 7.69.11 2.05 1.57.41 6.43.33 6.84-.257 1.209-.351 2.446-.28 3.68"/>
        <path stroke="#000" stroke-linecap="round" stroke-linejoin="round" d="M219.38 85.86c-.076 1.015-.25 2.02-.52 3-.21.37.52.29.8.37.28.08.2 2.05.48 2.37.28.32 2 0 2.49 0M229.57 127.72c.86 10.95 1.48 19.53 1.46 20.51-.15.35-3.73 1.57-3.87 0-.14-1.57-4.12-24.33-4.53-25.11-.41-.78-2 9.43-1.9 10.55.09 1.73-.33 13.59 0 14.17.33.58-3.32.74-3.38-.58-.39-2.55-.64-16.32-.45-19.55M231 149.33c.18 1.22.62 2.36.34 2.36-.942.181-1.904.231-2.86.15-.4.19-5.41.85-4.66 0s3.68-2.1 3.77-2.51M221 148.89c.19 1.22.38 2.06.11 2.06-.925.18-1.871.227-2.81.14-.39.19-5.32.85-4.57 0s3.43-1.76 3.69-2.51M216.88 102.24c-1.24 1.12-2.59 2.81-4.27 2.8-1.89 0-9.12-5.42-9.8-5.78-.37-.2-2.09-.3-3-.72M221.63 92.71c-.939.238-1.863.529-2.77.87-.64.3-7 7.36-7 7.36s-7.3-2.83-8.25-3.47c-.924-.713-1.932-1.31-3-1.78-.79-.21-3.41.36-2 1.36.705.475 1.448.893 2.22 1.25M230.62 116.46c-.045 1.163-.24 2.316-.58 3.43-.61 2.4 1.61 2.88 2.38-.37.038-.962-.002-1.925-.12-2.88M204.19 98.17L203.49 99.26"/>
        <path stroke="#000" stroke-linecap="round" stroke-linejoin="round" d="M230.23 116.46h2.44s0-16.2-1.06-18.91c-1.06-2.71-2.64-2.79-5.05-4.47 0 0-1.36 2.34-3.39 2.23-2.03-.11-1.46-2.23-1.46-2.23M223.37 127.72L221.63 127.72M191.01 91.94L191.01 96.43M194.65 99.62c1-.27 4.33-.76 4.33-.76M193 102.79c.65.5 3.13 3.3 3.13 3.3"/>
    </g>
</svg>
