<svg xmlns="http://www.w3.org/2000/svg" width="96" height="96" viewBox="0 0 96 96">
    <g fill="none" fill-rule="evenodd">
        <path fill="#CDDC39" fill-rule="nonzero" d="M21.75 26l9.86 5.82c.553.31 1.227.31 1.78 0l30.4-16c.794-.495 1.834-.307 2.405.434.57.741.487 1.795-.195 2.436l-15.88 17.7c-.383.409-.557.97-.473 1.524.084.554.417 1.039.903 1.316L64 46.85c.861.482 1.95.195 2.46-.65L89.19 5.86c.392-.647.343-1.47-.124-2.066-.467-.595-1.254-.84-1.976-.614L22.14 22.67c-.695.212-1.2.816-1.284 1.538-.084.721.267 1.425.894 1.792z" transform="translate(3 10)"/>
        <path stroke="#000" stroke-linecap="round" stroke-linejoin="round" stroke-width="2" d="M87.41.87C77.91 18 69.8 27.67 59.48 47.79c-6-3.68-8.77-6.14-15.28-8.89C42.63 44.59 34 59 34 59l-4.29-22.5s-12-9.36-17.87-12.67C11.84 23.83 72 5 87.41.87zM34 59c1.8-1.69 12.64-10.19 14.43-11.88" transform="translate(3 10)"/>
        <path stroke="#000" stroke-linecap="round" stroke-linejoin="round" stroke-width="2" d="M46.15 35.1c8.39-8.21 27.26-24.33 27.26-24.33S51.68 21.33 34 31.11M.42 75.67C11.69 73 24.91 51.91 14 48.31c-10.91-3.6-7.9 15.2 3.13 14.88 2.978.03 5.933-.52 8.7-1.62" transform="translate(3 10)"/>
    </g>
</svg>
