<svg xmlns="http://www.w3.org/2000/svg" width="900" height="640" viewBox="0 0 900 640">
    <g fill="none" fill-rule="evenodd" transform="translate(157.5 111)">
        <path fill="#1A2350" fill-rule="nonzero" d="M195 231.175c1.975-9.175 3.175-55.6 6.325-56.25 3.15-.65 6 38.05 6.925 46.15.925 8.1-1-54.85 2.775-58.075 3.775-3.225-4.4-4.725-9.7-2-8.3 6.05-6.325 70.175-6.325 70.175zM201.2 156.5c12.5-4.125 215-78.275 221.825-75.55 4.35 1.75 5.775 21.825 5.4 21.8-3.575-.3-200 60.15-200 60.15l-27.225-6.4z" opacity=".1"/>
        <path stroke="#000" stroke-linecap="round" stroke-linejoin="round" stroke-width="2.5" d="M275.775 129.825c-33.475.4-71.875 3.025-107.65 5.575"/>
        <path fill="#1A2350" fill-rule="nonzero" d="M478.225 135.4c.825 17.275 14.425 62.825 14.425 62.825L483.15 226s-15-90.175-10.15-90.6c4.85-.425 5.225 0 5.225 0z" opacity=".1"/>
        <path stroke="#000" stroke-linecap="round" stroke-linejoin="round" stroke-width="2.5" d="M488.325 218.1c4.55-19.85 10.575-51 13.275-63.475 2.9-13.55-5.65-26.7-27.125-23.4M417.9 394.175c-4-19.425-7.85-97.5-14.75-153.775-2.35-19.2-.9-33.225-3.025-45-3.425-19.025-7.65-26.125-13-28.575-14.675-6.7-124.825-5.975-166.575-5.4-29.8.4-49.475-1.4-64.075-29.675-7.05-13.675-41.95-11.775-77-11C41.95 121.5 1 121.5.5 132.05s.775 34.075 6 71.225c1.65 11.7 6.15 28.775 7.925 42.075 7.375 55.6 15 123.3 28.2 167.5 120.15 1.25 266.325-.9 386.45.35 2.253.274 4.531-.238 6.45-1.45 1.364-1.363 2.288-3.105 2.65-5 4.05-13.05 8.25-27.65 12.5-43.125"/>
        <path stroke="#000" stroke-linecap="round" stroke-linejoin="round" stroke-width="2.5" d="M422.075 368.175c25-7.825 77.775-24.8 91.55-28.1 0 0-15.925-56.75-29.175-108.725-8.975-35.175-10-68.075-11.875-76.475-4.525-20.625-10.225-56.35-10.225-56.35S267.625 152.85 243.45 159M205.575 154.875c73.725-21.2 140.925-51.225 210.95-75.625L420 92"/>
        <circle cx="75.725" cy="49.6" r="10" fill="#1A2350" fill-rule="nonzero" opacity=".05"/>
        <circle cx="346.875" cy="39.6" r="5" fill="#1A2350" fill-rule="nonzero" opacity=".05"/>
        <path fill="#1A2350" fill-rule="nonzero" d="M231.183 5.247H252.408V26.472H231.183z" opacity=".05" transform="rotate(45 241.795 15.86)"/>
        <path fill="#CDDC39" fill-rule="nonzero" d="M554.8 268.825c-4.675 1.25-14 10-15.2 12.725-1.2 2.725 4.725 9.2 6.65 9.075 1.925-.125 3.05-3.85 3.05-3.85l.9 24.1s5.6 6.225 17.125 5.775c11.525-.45 5.6-17.5 6.65-17.9 1.05-.4 7.3.75 10.225-1.3 8.45-5.875-6.775-27.875-12.725-29.525-5.55-1.55-1.4 4.075-6.975 3.85-3.424-.188-6.751-1.2-9.7-2.95z"/>
        <path stroke="#000" stroke-linecap="round" stroke-linejoin="round" stroke-width="2.5" d="M572.175 301.25s8.75-2.7 10.825-3.25c2.075-.55-.925-11.225-3.475-18s-6.6-6.95-12.65-11.175c0 0-3.4 5.875-8.475 5.6-5.075-.275-3.65-5.6-3.65-5.6M554.55 267.925c-2.344.597-4.655 1.314-6.925 2.15-1.6.75-11.625 10.925-11.625 12.5 0 1.575 7.275 9.075 7.275 9.075l3.525-5"/>
        <path stroke="#000" stroke-linecap="round" stroke-linejoin="round" stroke-width="2.5" d="M571.45 285.675c.15 5.375-.55 24.325-.55 26.25-1.925 1.525-17.825 2.2-23.275 0-1.875-5.9-.35-25.975-1.6-30.375"/>
        <path fill="#000" fill-rule="nonzero" stroke="#000" stroke-linecap="round" stroke-linejoin="round" stroke-width="2.5" d="M565.925 268.825c-.4-3.25-1.425-6.225-.8-7.05.625-.825 9.575-10 6.65-15.775-2.925-5.775-15.75-9.5-17.225-8.525-1.475.975-4.225 6.05-1.05 7.125 3.175 1.075 9.8 2.5 8.625 4.75-1.304 2.101-2.155 4.451-2.5 6.9.5 1.25 1.525-.15 2.5-1.425.975-1.275 3.35.475 1.8 2.5-.903 1.713-1.135 3.7-.65 5.575"/>
        <path stroke="#000" stroke-linecap="round" stroke-linejoin="round" stroke-width="2.5" d="M552.975 246.15c-1.256 2.187-2.721 4.246-4.375 6.15-.85.6.85 1.2 1.4 1.675.55.475-1.75 4.85-1.475 5.875.275 1.025 4.5 2.275 5.625 2.7l1.175 5.375M570.9 311.925c.8 7.5 7.25 91.375 7.15 94.8-.375.875-9.325 3.9-9.675 0-.35-3.9-10.3-60.825-11.3-62.775-1-1.95-5 23.575-4.775 26.375.25 4.3-.825 33.95 0 35.425.825 1.475-8.275 1.85-8.45-1.475-.975-6.35-1.475-45-.975-53 .5-8 4.75-39.35 4.75-39.35M577.975 409.475c.475 3.05 1.55 5.9.85 5.9-2.355.453-4.76.58-7.15.375-1 .45-13.525 2.125-11.625 0 1.9-2.125 9.175-5.275 9.4-6.275M552.975 408.35c.45 3.05.925 5.15.25 5.15-2.313.449-4.677.575-7.025.375-.975.45-13.275 2.125-11.425 0 1.85-2.125 8.6-4.4 9.25-6.275M500 282.5c2.2 1.05 6.475 1.275 7.5 1.775 1.7.925 19.775 14.45 24.5 14.475 4.2 0 7.5-4.225 10.675-7.025M536 282.65l-6 5.825s-18.25-7.075-20.6-8.65c-2.314-1.783-4.832-3.285-7.5-4.475-1.95-.525-8.525.925-5 3.425 1.763 1.188 3.62 2.233 5.55 3.125M574.75 304.125c.475 5.925 1.3 22.675-.225 28.675-1.525 6 4.05 7.2 5.975-.925.085-2.687-.015-5.377-.3-8.05 0-9.3 1.3-21.975.825-25M237.65 129.825c-20.55-9.65-30.6 25-31.125 36.725-1.65 37.875 2.15 65 8.725 102.275 6.275 35.525 15 81.4 28.4 114.85 4.75 11.825 8.8 22.125 17 31.875 1.508 1.347 3.679 1.652 5.5.775"/>
        <path stroke="#000" stroke-linecap="round" stroke-linejoin="round" stroke-width="2.5" d="M249.1 129.625c-10.9-10.15-56.9 24.575-57.075 40.4-.3 28.975-.6 57.95 1.2 86.85 1.725 27.675 5.4 55.2 9.05 82.675 3.9 29.35 19.525 81.675 24.625 76.4"/>
        <path stroke="#000" stroke-linecap="round" stroke-linejoin="round" stroke-width="2.5" d="M215.45 138.25c-.875-7.225-5.9-13.25-11.35-18.05-7.826-7.248-17.395-12.346-27.775-14.8-2.5-.5-17.35 0-7.875 9.2 7.7 7.5 13.675 16.275 23.4 20.8 8.3 3.85 38.475 4.575 47.5 3.875"/>
        <path stroke="#000" stroke-linecap="round" stroke-linejoin="round" stroke-width="2.5" d="M213.225 139.55c-.71-10.145 1.925-20.244 7.5-28.75 5.95-8.2 16.3-13.55 26.25-11.725.964.145 1.895.458 2.75.925 3.175 1.9 3.375 6.45 2.5 10-2.11 6.667-6.34 12.462-12.05 16.5-5.704 3.982-11.951 7.123-18.55 9.325-15.635 5.47-31.654 9.773-47.925 12.875"/>
        <path fill="#1A2350" fill-rule="nonzero" d="M431.45 405.4c4.575-1.2 16.75-38.8 16.75-41.8s-21.6 9.275-27.5 11.7c-5.9 2.425 6.2 31.325 10.75 30.1z" opacity=".1"/>
    </g>
</svg>
