<svg xmlns="http://www.w3.org/2000/svg" width="900" height="640" viewBox="0 0 900 640">
    <g fill="none" fill-rule="evenodd" transform="translate(197.5 88.5)">
        <path fill="#CDDC39" d="M131.15 128.175c-.421-1.719-.094-3.536.9-5l.725-.575 15.8-10.975c.95-.677 1.345-1.894.975-3l-2.8-8c-7.5-22.175 3.35-41.3 25.725-47.5 3.2-.95 5 6.35 5.425 11.5.253 2.123-1.158 4.087-3.25 4.525-1.1.25-2.125.5-3.025.75-10.975 3.25-14.55 11.075-10.45 24.1l.5 1.55 1.45 4.125c.128.365.418.65.784.772.367.122.77.068 1.091-.147l22.925-15.975c2.515-1.758 5.823-1.895 8.475-.35l.775.5 8.175 6.1c.423.296.97.345 1.44.129.468-.217.786-.665.835-1.179 1.575-17.5 5-23.725 14.1-28.55 1.45-.775 6.05-3.125 7.5-2.85 1.45.275 2.5 2.7 3.4 5.5 1.18 3.588.085 7.533-2.775 10-.647.542-1.256 1.127-1.825 1.75-3.075 3.225-4.4 8.5-5.325 25.55-.084 1.491.582 2.926 1.775 3.825l12.3 9.25.475.275c4.225 2.25 5 2.25 5.65-1.275l.325-1.75c.35-2.05 1.025-5.675 2.5-6.825 1.475-1.15 11.875 1.225 13.025 2.875 1.185 1.946 1.628 4.254 1.25 6.5-2.875 15.95-15.625 21.65-30 14.575l-1.375-.725-.95-.625-3-2.225c-.65-.48-1.506-.575-2.244-.25-.74.326-1.247 1.022-1.331 1.825-1.85 17.8-5.925 25.25-17.1 27.85-2.367.582-4.86.344-7.075-.675-1.725-1.075-3.725-10-2.85-11.75s3.575-2.025 5.475-2.725l.875-.25c2.875-.675 4.8-7.975 5.775-25.7.07-1.251-.494-2.454-1.5-3.2l-12.5-9.375-21.375 15c-1.084.75-1.525 2.136-1.075 3.375L186.225 166c.906 3.44 1.566 6.94 1.975 10.475.132 1.3-.389 2.582-1.39 3.422-1 .84-2.352 1.132-3.61.778l-7.5-1.95c-1.913-.529-3.358-2.1-3.725-4.05-.15-.725-.325-1.5-.5-2.275l-.425-1.825L156.7 129c-.261-.725-.843-1.29-1.576-1.529-.733-.24-1.535-.127-2.174.304l-13.875 9.65c-.573.364-1.27.48-1.93.32-.661-.161-1.228-.583-1.57-1.17l-4.425-8.4z"/>
        <circle cx="303.025" cy="52.975" r="10" fill="#1A2350" fill-rule="nonzero" opacity=".05"/>
        <circle cx="192.725" cy="5.8" r="5" fill="#1A2350" fill-rule="nonzero" opacity=".05"/>
        <path fill="#1A2350" fill-rule="nonzero" d="M24.915 61.494H46.14V82.719H24.915z" opacity=".05" transform="rotate(45 35.528 72.106)"/>
        <path stroke="#000" stroke-linecap="round" stroke-linejoin="round" stroke-width="2.5" d="M129.75 172c-10.625-2.5-10.7-2.5-19.525-4.425M405.275 119l98.225 23.125s-102.95 29.125-132.125 35l-118.625 24.05s-62.75-15.275-113-26.9M374.9 111.75L380.825 113.15M226.05 89.25L252.75 82.975 344.575 104.6M81.7 161.5C46 154.65 2 142.025 2 142.025L138.05 110M252.75 453.125s-.75-207.925 0-240.575M250.95 158.45s-.825-18.425-.7-28.075M252.5 98.2c0-3.975.15-8.325.3-15.225"/>
        <path stroke="#000" stroke-linecap="round" stroke-linejoin="round" stroke-width="2.5" d="M503.5 142.025c1.275 52.25-1.25 222.35 0 263.5l-134.425 31.65-116.325 27.5S148.9 439.925 96.425 426.8C43.95 413.675 6.425 410.65 2 405.625c-2.3-20.5-1.35-243.925 0-263.5"/>
        <path stroke="#000" stroke-linecap="round" stroke-linejoin="round" stroke-width="2.5" d="M388.65 167.85l22.15-89.375c-2.514.65-4.953 1.563-7.275 2.725-3.95 1.575-7.5 2.5-7.85 3.975l-21.3 85M434.725 159.95c1.898-3.694 2.196-8.005.825-11.925l-3.475-10c-2.775-7.975-10-13.175-19.4-10.25-9.4 2.925-12.2 12.35-9.425 20.3l3.45 10c1.004 2.87 2.84 5.378 5.275 7.2m14.125-18.7c1.725 5.45-.675 9.075-3.7 10-3.374.874-6.821-1.134-7.725-4.5l-1.55-4.4c-1.225-3.55.125-7.5 3.275-8.325 1.714-.498 3.557-.286 5.113.588 1.557.875 2.696 2.339 3.162 4.062M352.8 106.125V104.6c-7.95 2.775-13.85 12.925-11.075 20.9l5 11.375c2.775 7.975 11.675 10.775 19.625 8h0c3.826-1.333 6.965-4.13 8.728-7.778 1.763-3.648 2.005-7.846.672-11.672l-3.45-10c-1.352-3.82-4.167-6.945-7.824-8.69-3.657-1.743-7.857-1.963-11.676-.61zm13.025 19.65c1.4 5-.175 7.5-3.275 8.325-1.622.44-3.352.213-4.804-.633-1.452-.846-2.504-2.239-2.921-3.867l-1.525-4.4c-1.383-3.197.067-6.911 3.25-8.325 1.51-.53 3.173-.41 4.593.328 1.42.739 2.473 2.031 2.907 3.572l1.775 5zM128.55 125.025c-.407-1.726-.062-3.544.95-5l.725-.55 17.5-11.95-3.35-10c-7.5-22.25 3.775-41.25 26.225-47.35 4.2-1.175 5.675 11.775 5.4 15.45-2.171.342-4.324.793-6.45 1.35-11 3.125-14.65 10.925-10.675 23.975l.475 1.55 1.925 5.7 24.45-16.65c2.586-1.686 5.92-1.706 8.525-.05l.75.525 10.175 7.725c1.675-19.425 5-26.025 14.625-30.975 1.45-.75 6.075-3.075 7.5-2.775 2.5.475 5.375 11.35 4.575 13.55-2.369.528-4.48 1.862-5.975 3.775-3.25 3.35-4.625 8.95-5.725 27.9l14.05 10.725.5.275c4.175 2.3 4.85 2.3 5.625-1.225l.35-1.725c.4-2.05 1.1-5.675 2.65-6.8 1.55-1.125 11.85 1.325 13 3 1.15 1.675.3 4.6 0 6.75-3 15.925-14.55 21.25-28.775 14.025l-1.4-.75-.925-.6-6.175-4.7c-1.875 20.675-5.775 29-17.775 31.65-2.125.45-5.4 1.475-7.125.4-1.725-1.075-3.575-11.3-2.7-12.925s3.625-2 5.525-2.675l.875-.25c2.975-.65 5-8.475 6.175-27.65L190 97.975 166.6 114l16.725 49.375c1.33 5.267 2.06 10.668 2.175 16.1"/>
        <path stroke="#000" stroke-linecap="round" stroke-linejoin="round" stroke-width="2.5" d="M169.525 174.95c-.225-1.7-.525-3.525-.95-5.45l-.425-1.85-15.125-44.525-18.9 12.85M12.325 453.125C24.6 411.85 82.9 181.7 91.85 147.4M57.7 464.575C70 423.325 129.675 187.8 138.625 153.5M18.375 430.425s31.525 6.95 45.75 10.125M27.775 402.25s28.525 6.95 42.75 10M35.55 372.95L78.85 382.525M43.15 345.925s27.025 6.95 41.25 10M50.65 317.75s29.025 6.95 43.25 10M55.975 288.15s31.525 6.95 45.75 10.125M66.025 258.575L109.25 268.125M70.375 230.4s31.525 6.95 45.75 10.125M112.5 209.65L122.5 211.875M91.45 205L104.6 207.9M78.85 202.225L84.55 203.5M112.15 179.35L129.65 183.25M86.1 173.6L92.225 174.95M95.9 148.525c-.45 3.425-.325 18.925-.45 20.15 1.125 1.075 11.25 2.5 14.875 1.55-.176-3.912.041-7.832.65-11.7 1.6-1.05 2.975-1 2.75-5.525M113.375 134.25c0 1.625.475 1.8.475 2.5s-.525.475-.975.55c-.45.075-.675 3.25-1.175 3.7-.5.45-.575.225-1.125.15M98.075 177.525c-.786 3.42.77 6.949 3.825 8.675.325 7.175 6.4 44.35 5.775 45.225s5.15 1.75 5.5-.35c1.05-4-.85-29.125-.6-34.3.25-5.175-2.25-26.55-2.25-26.55"/>
        <path stroke="#000" stroke-linecap="round" stroke-linejoin="round" stroke-width="2.5" d="M95.425 169.575c-1.35 1.4-5 5.85-3.875 15.575-4.575 16.925-15.925 38.9-16.025 40.3.175.575 5.675 3.125 6.175.65s17.275-36.55 18.025-37.725M75.375 227.2c-.5 1.925-1.375 3.675-.95 3.725.425.05 3.075 1.55 3.475-.275 1.075 1.275 9.575 3.25 8.525 1.775-1.05-1.475-5.525-3.975-5.6-4.65M107.075 233.05c-.5 1.925-.85 3.575-.425 3.625.425.05 3 1.475 3.375-.175.6.375 9.325 2.8 8.3 1.3-1.025-1.5-5.2-3.375-5.5-4.625M130.475 127.95c.275-.375.55-.7.75-.95.825-1.025 4.775-2.775 3.875 0-1.293 2.59-2.816 5.058-4.55 7.375-2.54 3.894-5.427 7.55-8.625 10.925-2.975 2.875-5 3.825-9.025 7.5"/>
        <path stroke="#000" stroke-linecap="round" stroke-linejoin="round" stroke-width="2.5" d="M111.025 145.925s5-3.275 7.975-4.75c2.975-1.475 6.925-7.325 9.025-9.425.6-1.225 1.175-2.725 1.725-4.175M95.725 140.525c.475-.225 1.175-.425 1.55-.575.375-.15-.65-.875-2.35-.55-2.125.375-7.925 1.675-7.9 5 0 1.275 3.375 3 9.675 4.25"/>
        <path stroke="#000" stroke-linecap="round" stroke-linejoin="round" stroke-width="2.5" d="M96.925 142.025c-2.2-.225-.5 0-1.375-.225-1.625-.4-.525-.65.625-1.275"/>
        <path fill="#000" fill-rule="nonzero" stroke="#000" stroke-linecap="round" stroke-linejoin="round" stroke-width="2.5" d="M98.325 141.075c1.32-1.947 1.807-4.342 1.35-6.65-.801-3.666.42-7.48 3.2-10 3.65-3.225 12.075-1.5 13.375 1.825 1.15 2.875-.775 5.95-3.3 5.575s-5.65 1.3-5 4.05c1.325 5 3.7 9.35-.375 10.225 1.7 3.35-2.125 7.25-5.7 6.325-2.41-.514-4.356-2.286-5.091-4.638-.736-2.351-.147-4.917 1.541-6.712z"/>
        <path stroke="#000" stroke-linecap="round" stroke-linejoin="round" stroke-width="2.5" d="M127.2 133.425L129.675 134.825M199.375 178.85c8.518-14.129 24.992-21.386 41.166-18.134 16.174 3.251 28.563 16.311 30.959 32.634"/>
        <path fill="#000" fill-rule="nonzero" stroke="#000" stroke-linecap="round" stroke-linejoin="round" stroke-width="2.5" d="M317.3 140.225s-14.725-4.25-16.95-5.8l5.775-16.95c-1.623-1.061-3.38-1.902-5.225-2.5-1.834-.626-3.742-1.013-5.675-1.15l-5.8 16.95s-13.3-5-16.95-5.775c-.6 1.55-3.725 10.925-3.725 10.925l16.95 5.775-5.5 16.85c.825 1.575 10.65 3.825 10.65 3.825s5.575-16.55 6.375-17.3c2.075.7 16.35 6.125 16.35 6.125l3.725-10.975z"/>
        <path stroke="#000" stroke-linecap="round" stroke-linejoin="round" stroke-width="2.5" d="M302.9 185.4s7.5-12.675 9.625-15.35c1.4.725 14.575 7.025 20.55 10"/>
        <path fill="#1A2350" fill-rule="nonzero" d="M431.075 124.975c13.875 1.875 53.775 12.675 57.9 13.625 4.125.95 5.25 8.3-5.2 8.975-10.45.675-45.575 17.35-45 6.3.575-11.05-8.4-26.95-13.75-26.85-5.35.1-20.925 3.55-21.65 9.35-.725 5.8 7.275 25 4.225 28.9-3.05 3.9-13.025 6.25-13.525 0s5.875-38.225 8.225-41c2.35-2.775 17.9-.775 28.775.7z" opacity=".1"/>
        <ellipse cx="360.3" cy="125.925" fill="#1A2350" fill-rule="nonzero" opacity=".1" rx="4.425" ry="7.025"/>
        <circle cx="421.225" cy="149.175" r="6.425" fill="#1A2350" fill-rule="nonzero" opacity=".1"/>
        <path fill="#1A2350" fill-rule="nonzero" d="M380.825 116.8c-6.4-1.875-4.075.475-5.125 8.625-1.05 8.15 1.475 15.675-9.4 19.45-10.875 3.775-19.625-8-25.225-14.5-5.6-6.5 9.575-25 3.5-25.775-6.075-.775-91.775-23.8-91.825-21.625-.05 2.175-2.5 51.625-1.8 60.975.273 5.59-.215 11.191-1.45 16.65-4.35-1.6 1.525 3.35 1.45 6.975-.175 8.25-18.25 11.725-29.125 11.725-8.35 0-15.475-2.2-18.325-5.3-4.675 3.775-2.75 3.6-2.85 7.3-.225 11.05 27.1 11.425 34.775 13.175 6.95 1.575 33.1 12.5 40.275 2.5 27.875-4.45 88.025-18.5 95.675-20 9.5-1.85 15.875-58.275 9.45-60.175z" opacity=".1"/>
    </g>
</svg>
