<svg xmlns="http://www.w3.org/2000/svg" xmlns:xlink="http://www.w3.org/1999/xlink" width="1440" height="810" viewBox="0 0 1440 810">
    <defs>
        <linearGradient id="prefix__c" x1="50%" x2="50%" y1="0%" y2="100%">
            <stop offset="0%" stop-color="#FFF"/>
            <stop offset="100%" stop-color="#FFF" stop-opacity="0"/>
        </linearGradient>
        <path id="prefix__a" d="M0 0H1440V810H0z"/>
    </defs>
    <g fill="none" fill-rule="evenodd">
        <mask id="prefix__b" fill="#fff">
            <use xlink:href="#prefix__a"/>
        </mask>
        <g mask="url(#prefix__b)">
            <g>
                <path fill="#1A2350" fill-rule="nonzero" d="M1107.87 322.61l.1-.08-.1.08zM1109.56 321.14l.09-.08-.09.08zM1104.39 325.45l.15-.12-.15.12zM1106.14 324.06l.13-.1-.13.1zM845.83 306.39c106.72 0 106.72 34.86 213.44 34.86h2.41-2.41c-106.72 0-106.72-34.86-213.44-34.86-1.53 0-3 0-4.52-.06 1.48.04 2.99.06 4.52.06zM1102.62 326.78l.17-.12-.17.12zM1081 338l.71-.22-.71.22zM1083.19 337.23l.62-.22-.62.22zM1085.27 336.45l.57-.22-.57.22zM1076.68 339.18l.85-.21-.85.21zM1078.85 338.61l.81-.23-.81.23zM1087.34 335.61l.5-.22-.5.22zM1091.33 333.75l.42-.21-.42.21zM1097.11 330.51l.28-.17-.28.17zM1099 329.32l.24-.15-.24.15zM1095.22 331.64l.32-.18-.32.18zM1089.33 334.72l.48-.22-.48.22zM1093.3 332.72l.36-.19-.36.19zM1100.81 328.08l.21-.14-.21.14zM238.32 321.82l-.84.5.84-.5zM229.87 326.08l-1 .38 1-.38zM227.67 326.89c-.35.13-.7.23-1.06.35.39-.12.71-.24 1.06-.35zM225.44 327.61l-1.11.3 1.11-.3zM234.16 324.14c-.3.16-.61.3-.92.45.31-.15.62-.29.92-.45zM236.26 323l-.88.47.88-.47zM232 325.16l-1 .42 1-.42zM223.17 328.22l-1.17.26 1.17-.26zM251.89 310.89l-.56.57.56-.57zM213.73 329.57c-.77 0-1.54.06-2.32.06.78 0 1.59-.02 2.32-.06zM220.87 328.72c-.41.08-.83.14-1.24.21.37-.07.83-.13 1.24-.21zM1074.48 339.68l.89-.18-.89.18zM216.15 329.4c-.51.05-1 .08-1.53.11.51-.03 1.02-.06 1.53-.11zM218.53 329.12l-1.34.16 1.34-.16zM250 312.7l-.6.57.6-.57zM1274.83 299.75c55.662 0 111.314-24.396 151.839-47.73 1.608-.925 4.831-2.52-.607-9.734C1386.963 190.422 1330.209 137 1274.83 137c-76.47 0-101.594 104.117-142.455 164.294-3.875 5.706-.362 7.797 2.573 7.565 42.605-3.376 64.907-9.109 139.882-9.109zM29 357.43l-3.77 1.07 3.77-1.07zM240.35 320.52c-.26.18-.53.35-.8.52.27-.17.54-.34.8-.52zM33.93 356l-.95.26.95-.26zM242.35 319.13c-.25.19-.5.36-.76.54.26-.18.51-.35.76-.54zM246.26 316.09l-.68.56.68-.56zM244.32 317.65l-.72.55.72-.55zM248.17 314.43l-.65.58.65-.58zM1064.93 341c.49 0 1-.07 1.46-.12-.48.12-.97.12-1.46.12zM684.12 229.09c.69.23 1.37.46 2 .7-.63-.24-1.31-.47-2-.7zM687.25 230.19c.7.26 1.41.51 2.1.78-.69-.27-1.35-.52-2.1-.78zM698.06 234.7c.69.32 1.36.65 2 1-.64-.35-1.31-.7-2-1zM690 231.24c2.54 1 5 2.05 7.4 3.16-2.4-1.11-4.84-2.17-7.4-3.16zM680.85 228l2 .64-2-.64zM674 226.13l2.15.56-2.15-.56zM677.46 227.05l2.07.59-2.07-.59zM711 241.67c3.25 2 6.38 4 9.43 6.15-3.05-2.12-6.18-4.18-9.43-6.15zM700.93 236.1c.65.32 1.29.65 1.93 1-.64-.35-1.28-.68-1.93-1zM670.35 225.28c.79.17 1.55.36 2.32.54-.77-.18-1.53-.37-2.32-.54zM720.65 248l2.09 1.49-2.09-1.49zM708.93 240.44l2.06 1.22-2.06-1.22zM706.4 239l1.93 1.1-1.93-1.1zM703.71 237.53l1.91 1-1.91-1zM723 249.64l2.11 1.54-2.11-1.54zM267.32 291.29l-.21.32.21-.32zM265.7 293.74l-.24.36.24-.36zM268.9 288.8l-.15.24.15-.24zM270.46 286.26c-.037.051-.07.104-.1.16.03-.056.063-.109.1-.16zM272 283.66v.07-.07zM424.83 306.39c106.72 0 106.72-78 213.44-78 8.602.056 16.71.733 25.23-.39 3.133-.413 1.772-3.47-2-4-7.886-1.107-15.256-2.31-23.23-2.25-106.72 0-106.72-211.84-213.44-211.84-76.18 0-107.246 167.476-144.03 263.113-2.3 5.977.722 8.864 3.12 9.322 45.358 8.665 66.419 24.045 140.91 24.045zM264.07 296.12c-.1.13-.19.27-.29.41.1-.14.22-.28.29-.41zM255.51 307c-.16.18-.33.36-.49.55.16-.16.32-.34.49-.55zM257.27 305l-.45.54.45-.54zM253.72 309l-.54.56.54-.56zM260.72 300.68c-.12.17-.24.33-.37.49.13-.17.25-.32.37-.49zM259 302.87l-.41.51.41-.51zM262.41 298.43l-.33.45.33-.45zM756.63 275.86l2.37 1.74-2.37-1.74zM815.31 303.59c1.2.23 2.41.45 3.64.66-1.23-.25-2.44-.43-3.64-.66zM824.31 305l2.51.31-2.51-.31zM811.53 302.79c1.21.27 2.43.53 3.67.78-1.2-.25-2.46-.51-3.67-.78zM820.18 304.44l2.64.41-2.64-.41zM804.51 301l2.21.61-2.21-.61zM801.11 300c.69.23 1.4.44 2.11.65-.71-.26-1.42-.47-2.11-.65zM725.24 251.27c10.79 7.94 20.7 16.53 31.3 24.52-10.6-7.99-20.54-16.58-31.3-24.52zM828.43 305.52c.833.093 1.673.173 2.52.24-.847-.067-1.687-.147-2.52-.24zM1069.83 340.51l1.12-.16-1.12.16zM1062.39 341.18c.55 0 1.11 0 1.67-.08-.56.04-1.12.06-1.67.08zM1067.39 340.81l1.3-.14-1.3.14zM836.9 306.16c1 0 2 .09 3 .12-1.01-.03-2.01-.07-3-.12zM832.62 305.89c.87.07 1.76.13 2.65.18-.89-.07-1.78-.07-2.65-.18zM808 301.93c.82.21 1.66.41 2.51.61-.87-.2-1.71-.4-2.51-.61zM761.88 279.71l2.19 1.54-2.19-1.54zM797.76 298.84c.69.24 1.39.48 2.1.71-.71-.23-1.41-.47-2.1-.71zM772.89 287c.7.43 1.42.86 2.14 1.28-.72-.43-1.44-.86-2.14-1.28zM1072.17 340.13c.34-.06.68-.11 1-.18-.32.05-.66.12-1 .18zM759.31 277.85l2.15 1.56-2.15-1.56zM775.81 288.72l1.94 1.1-1.94-1.1zM764.44 281.51c2.58 1.78 5.21 3.5 7.92 5.17-2.71-1.68-5.36-3.39-7.92-5.17zM778.66 290.32c.63.34 1.27.69 1.91 1l-1.91-1zM787.33 294.66c1 .46 2 .91 3.06 1.34-1.03-.43-2.05-.88-3.06-1.34zM794.36 297.59c.75.29 1.49.57 2.25.84-.76-.27-1.5-.55-2.25-.84zM790.4 296c1 .42 2 .84 3.06 1.24-1.03-.39-2.05-.81-3.06-1.24zM784.39 293.28c.76.37 1.53.73 2.3 1.08-.77-.36-1.54-.71-2.3-1.08zM781.5 291.83l2 1-2-1z" opacity=".1" transform="translate(-22 334)"/>
                <path fill="#CDDC39" fill-rule="nonzero" d="M1418.79 253.66l-.49.28.49-.28zM1374.66 275.62l-1.49.63 1.49-.63zM1422.65 251.45l-.29.17.29-.17zM1414.81 255.89l-.58.33.58-.33zM1383.77 271.6l-.68.31.68-.31zM1406.48 260.41l-.56.29.56-.29zM1379.24 273.63l-1.19.53 1.19-.53zM1402.05 262.72l-.38.19.38-.19zM1410.72 258.14l-.62.33.62-.33zM1226.26 300.53h.87-.87zM1222.85 300.67h.88-.88zM1212.61 301.19h.76-.76zM1215.74 301h.78-.78zM1206.08 301.59h.67-.67zM1250.33 299.89h1.1-1.1zM1234 300.26h.94-.94zM1237.74 300.15h1-1zM1246.26 300h1.08-1.08zM1303.39 297l-2.26.35 2.26-.35zM1298.2 297.74l-2.27.3 2.27-.3zM1313.71 295.09l-2.18.43 2.18-.43zM1293 298.39l-2.25.25 2.25-.25zM1370 277.57l-1.65.67 1.65-.67zM1318.82 294l-2.08.45 2.08-.45zM1287.69 298.92l-2.19.2 2.19-.2zM1483.27 214.09s-18.532 15.013-47.695 33.62c-9.075 5.79-5.408 10.503-3.559 13.002 18.783 25.382 35.904 51.957 51.254 79.558V214.09zM1276.78 299.61l-1.72.06 1.72-.06zM1282.34 299.33l-2.06.13 2.06-.13zM1308.57 296.08l-2.24.4 2.24-.4zM1323.91 292.81l-1.88.44 1.88-.44zM1355.68 283.12l-1.84.66 1.84-.66zM1350.76 284.86l-1.82.63 1.82-.63zM1365.3 279.47l-1.75.69 1.75-.69zM1360.52 281.32l-1.81.69 1.81-.69zM1334.11 290.11h-.08.08zM1329 291.52l-1.37.35 1.37-.35zM1340.46 288.22l-1.43.45 1.43-.45zM1345.72 286.55l-1.72.56 1.72-.56zM1135.8 308.4l1.29-.12-1.29.12zM403.9 306.06l4 .14-4-.14zM399.94 305.9l2.9.12-2.9-.12zM395.44 305.66l3.42.19-3.42-.19zM391.49 305.41l3.66.24-3.66-.24zM387.88 305.14c.91.08 1.83.14 2.76.21-.93-.07-1.85-.13-2.76-.21zM214.28 330.63c23.345 0 41.585-15.496 56.918-39.705 1.81-2.857 3.802-9.925-5.54-10.515-14.858-.939-30.782-2.91-51.378-2.91-106.72 0-210.56 29.89-210.56 29.89v59.77s103.84-36.53 210.56-36.53zM383.86 304.8c1 .1 2.05.18 3.09.27-1.04-.07-2.07-.17-3.09-.27zM642.71 228.22l2.19-.07-2.19.07zM413.12 306.31l3.17.05-3.17-.05zM408 306.2c1.29 0 2.61.07 3.94.09-1.33-.02-2.65-.05-3.94-.09zM373.19 303.65l2.88.35-2.88-.35zM360.17 301.72c1 .18 2 .34 3 .51-1-.17-2-.33-3-.51zM357.32 301.22l2.71.48-2.71-.48zM363.33 302.25l2.78.43-2.78-.43zM348.54 299.47c2.71.58 5.5 1.14 8.39 1.68-2.93-.54-5.68-1.1-8.39-1.68zM369.77 303.21l3.17.41-3.17-.41zM648.26 228l1.21-.06-1.21.06zM366.71 302.77l2.62.37-2.62-.37zM376.86 304.09l2.64.29-2.64-.29zM380.16 304.45l3.38.32-3.38-.32zM1139.13 308.1l1.09-.11-1.09.11zM1149.4 307.08l.65-.07-.65.07zM1178.41 304h.18-.18zM1180.93 303.69h.2-.2zM1147.26 307.3l.67-.07-.67.07zM1143.82 307.65l.8-.08-.8.08zM1186.18 303.19h.41-.41zM1194.39 302.46h.56-.56zM1197.13 302.24h.55-.55zM1188.78 303h.41-.41zM1141.53 307.87l1-.09-1 .09zM1127.3 309.1l2.09-.16-2.09.16zM848.823 305.513c106.704 1.863 106.096 36.717 212.8 38.58 18.558.324 33.913-5.931 47.226-16.42 5.235-4.123 10.651-13.673-3.618-13.517-12.276.134-26.316.354-43.087.061-106.704-1.862-103.98-157.898-210.684-159.76C763.63 152.922 746.022 200.223 685 219c-6.5 2 .39 5.257 5.222 7.052 59.478 22.097 74.451 77.992 158.601 79.461zM1203.17 301.79l.65-.05-.65.05zM658.06 227.13h.14-.14zM1121.84 309.49l1.62-.11-1.62.11zM1124.67 309.29l1.47-.1-1.47.1zM1130.69 308.83l1.41-.11-1.41.11zM1133.33 308.61l1.24-.1-1.24.1zM653.43 227.59h.47-.47z" transform="translate(-22 334)"/>
                <path stroke="#000" stroke-linecap="round" stroke-linejoin="round" d="M1483.27 336.27S1448.8 260.745 1389.5 202c-4.112-4.074-17.4-13.868-21.654-17.69-30.411-27.319-64.214-47.31-98.016-47.31-40.086 0-65.115 28.812-86.246 64.791-4.154 7.074-7.146 16.746-11.084 24.209-29.356 55.638-56.063 115.21-113.23 115.21-78.467 0-99.24-16.846-147.16-26.824-8.597-1.79-18.069-5.295-28.905-6.354-10.909-1.067-23.2-1.682-37.375-1.682-49.947.02-75.867-19.564-101.199-39.895-11.843-9.505-15.15-16.05-29.131-23.955-18.279-10.335-48.84-20.78-80.22-20.78-106.72 0-106.73-215.84-213.45-215.84-24.76 0-43.615 18.41-59.421 46.45-3.855 6.838-9.375 14.313-12.909 22.17-19.914 44.277-32.982 101.686-50.991 151.444-1.35 3.73-4.717 8.411-6.103 12.034-19.809 51.769-43.661 91.652-81.126 91.652-60.205 0-119.493 11.626-159.739 21.76-3.419.861-9.7 3.711-12.833 4.543C13.348 362.663.72 366.16.72 366.16" transform="translate(-22 334)"/>
                <path stroke="#000" stroke-linecap="round" stroke-linejoin="round" d="M1483.27 210.09s-36.62 31.89-90.77 57.41c-6.566 3.094-15.524 5.129-22.5 8-30.98 12.751-65.546 24.25-100.17 24.25-18.889 0-33.46 1.15-46.83 1.75-2.607.117-12.047-.131-14.5 0-56.055 2.995-67.353 9.87-149.23 9.87-68.895 0-90.313-65.038-127.68-111.142-5.115-6.312-13.474-12.268-19.222-17.655-17.304-16.216-38.144-27.263-66.538-27.263-103.83 0-103.83 73.05-210.55 73.05-15.328 0-32.703.092-44.28 2.64-24.885 5.477-35.207 16.383-51 28.5-21.09 16.18-41.798 36.473-75.5 44-11.064 2.47-28.226 2.86-42.67 2.86-72.019.02-101.4-15.594-133.83-24.86-17.5-5-44.024-5-76.72-5-42.102 0-83.756 2.652-118.762 8.285-7.324 1.18-14.357 4.4-21.043 5.632C29.118 298.216.72 306.39.72 306.39" transform="translate(-22 334)"/>
                <g fill="#FFF" fill-rule="nonzero" stroke="#000" transform="translate(-22 334) translate(205.734 .57)">
                    <path d="M10.596 275.93c0 2.79-2.259 5.054-5.05 5.06-2.79 0-5.92-2.7-5.51-5.46.41-2.76 3.2-6.17 6-5.76 2.8.41 4.56 3.37 4.56 6.16zM221.156 305.82c-.12 2.704-2.347 4.835-5.055 4.835-2.707 0-4.934-2.13-5.055-4.835 0-2.79 3.23-5.61 6-5.06 2.486.346 4.281 2.556 4.11 5.06h0zM10.476 330.25c-.387 1.763-1.686 3.185-3.407 3.731-1.72.546-3.602.133-4.935-1.085C.801 331.68.22 329.843.606 328.08c.6-2.73 4-4.3 6.71-3.7 2.71.6 3.76 3.14 3.16 5.87zM645.186 304.1c1.19 2.53-.8 6-3.33 7.16-2.506 1.079-5.416-.023-6.578-2.491-1.163-2.469-.16-5.414 2.268-6.659 2.53-1.19 6.45-.53 7.64 1.99zM644.716 156.43c0 2.79-2.27 6.06-5.06 6.06-2.79 0-5-3.27-5-6.06.12-2.704 2.348-4.835 5.055-4.835 2.708 0 4.935 2.13 5.055 4.835h-.05zM858.716 311.43c.083 1.86-.862 3.614-2.46 4.569-1.598.955-3.591.955-5.19 0-1.597-.955-2.542-2.71-2.46-4.569 0-2.79 3-5.05 5.82-5.05 2.82 0 4.29 2.3 4.29 5.05z"/>
                    <ellipse cx="853.886" cy="341.55" rx="5.28" ry="4.98"/>
                    <path d="M1068.446 138.49c-1.35 2.44-5.12 3.84-7.56 2.49-2.44-1.35-2.63-5-1.27-7.4 1.356-2.438 4.432-3.316 6.87-1.96 2.439 1.356 3.316 4.432 1.96 6.87zM1069.146 299.69c0 2.37-2.26 5.28-5.05 5.28s-5.06-2.91-5.06-5.28 2.27-4.27 5.06-4.27c2.79 0 5.05 1.91 5.05 4.27zM434.716 221.43c.083 1.86-.862 3.614-2.46 4.569-1.598.955-3.591.955-5.19 0-1.597-.955-2.542-2.71-2.46-4.569-.063-1.576.62-3.09 1.845-4.084 1.224-.994 2.846-1.352 4.375-.966 2.75.56 3.89 2.3 3.89 5.05z"/>
                    <path d="M434.716 228.43c-.005 2.792-2.267 5.054-5.06 5.06-2.79 0-4.95-3.29-4.95-6.08s2.16-4 4.95-4c2.78 0 5.038 2.241 5.06 5.02h0zM221.156 5.82c-.12 2.704-2.347 4.835-5.055 4.835-2.707 0-4.934-2.13-5.055-4.835 0-2.79 1.53-5.82 4.33-5.82s5.78 3.03 5.78 5.82z"/>
                </g>
            </g>
        </g>
        <path fill="url(#prefix__c)" d="M0 235H1440V655H0z" mask="url(#prefix__b)"/>
    </g>
</svg>
