<svg xmlns="http://www.w3.org/2000/svg" width="96" height="96" viewBox="0 0 96 96">
    <g fill="none" fill-rule="evenodd">
        <path fill="#CDDC39" fill-rule="nonzero" d="M19.59 22.12l-14.37.52c-1.07 0-1.75-1.74-1.73-2.8l.3-13.55c.01-.517.228-1.009.604-1.364.376-.355.879-.545 1.396-.526l15.1-.33c1.06 0 1 1.54 1 2.61l-.29 13.55c-.01.52-.23 1.012-.608 1.368-.378.355-.883.544-1.402.522z" transform="translate(9 12)"/>
        <path stroke="#000" stroke-linecap="round" stroke-linejoin="round" stroke-width="2" d="M7.45 19.36H.86S-.25 1.09.86 1.09c0 0 17.63-1.11 17.63 0V13M30.61 1.09h17.1c1.1 0 1.1 18.27 0 18.27H31.44c-1.11 0-1.94-18.27-.83-18.27zM59.11 1.09h17.1c1.11 0 1.49 16.81 1.11 18.27H59.94c-1.1 0-1.94-18.27-.83-18.27zM20.59 72.54C12 63.5 7.5 51.5 10.5 49s6.9 2.78 8 5.5M18.72 55c-2.147-9.427-4.117-18.91-5.91-28.45-.37-2-2-8.48 1.55-9.39 2.91-.626 5.827 1.024 6.79 3.84 3.06 10.8 5.78 17.51 7.31 26.53-.65-1.77.53-8.39 4.23-8.7.968-.143 1.95.144 2.689.786.738.643 1.159 1.575 1.151 2.554 1.23-1.44 2.59-2.91 4.42-3.4 1.83-.49 4.16.51 4.39 2.38 1.76-1.21 4.28-2.38 5.81-.89.544.645.891 1.433 1 2.27 2 9.18 1.1 19.18-4.64 26.61" transform="translate(9 12)"/>
    </g>
</svg>
