<svg xmlns="http://www.w3.org/2000/svg" width="900" height="640" viewBox="0 0 900 640">
    <g fill="none" fill-rule="evenodd" transform="translate(197 63.5)">
        <path fill="#1A2350" fill-rule="nonzero" d="M3.575 50.625H469.775V73.075H3.575z" opacity=".1"/>
        <circle cx="226.25" cy="10.55" r="10" fill="#1A2350" fill-rule="nonzero" opacity=".05"/>
        <circle cx="435.95" cy="30.55" r="5" fill="#1A2350" fill-rule="nonzero" opacity=".05"/>
        <path fill="#1A2350" fill-rule="nonzero" d="M139.601 401.099H160.826V422.324H139.601z" opacity=".05" transform="rotate(45 150.214 411.712)"/>
        <path fill="#CDDC39" fill-rule="nonzero" d="M388.425 237.425c9.45-9.625 30.575-20.225 34.75-16.775 4.175 3.45 12.5 51.775 12.5 56.575 0 4.8 2.225 6.05 8.2 7.75 5.975 1.7 49.375 14.4 54.325 16.175 4.95 1.775-17.95 38.1-44.775 41.95-26.825 3.85-67.375-13.675-75.825-35.25-8.45-21.575-9.25-49.975 10.825-70.425z"/>
        <path stroke="#000" stroke-linecap="round" stroke-linejoin="round" stroke-width="2.5" d="M415.075 358.025H3.575c-4.125 0-4.125-307.5 0-307.5 0 0 287.65-1.35 323.1 0 35.45 1.35 148.125 0 148.125 0 2.275 0 2.375 85.35 1.3 162.2M476.975 379.875c.15 5.375-2.5 29.325-2.5 31.25-1.925 1.525-17.825 2.2-23.275 0 .906-6.03 1.216-12.134.925-18.225-2.325-1.9-4.475-2.025-3.4-9"/>
        <path fill="#000" fill-rule="nonzero" stroke="#000" stroke-linecap="round" stroke-linejoin="round" stroke-width="2.5" d="M473.85 368.75c-1.801-3.364-2.162-7.315-1-10.95 1.915-5.755.61-12.095-3.425-16.625-5.375-5.825-17.5-3.2-20 0-3.2 3.875-1.6 10.25 2.5 10s8.875 3.075 7.175 7.325c-3 7.5-7.5 14.425-1.175 16.525-3.325 5.125 2.175 12.025 8.125 11.175 7.675-.95 13.575-9.475 7.8-17.45z"/>
        <path stroke="#000" stroke-linecap="round" stroke-linejoin="round" stroke-width="2.5" d="M452.25 354.925c-.3 2.5-1.025 2.725-1.15 3.75s.75.825 1.45 1.025c.7.2.5 5.125 1.2 5.925.275.325.85.425 1.725.425M468.875 424.425c0 5.675-1.775 10.625-7.325 12.8-1.7 11.05-17.15 67.625-16.325 69.1.825 1.475-8.3 1.85-8.45-1.475-.975-6.35 6.025-45 6.525-53s7.8-40.725 7.8-40.725"/>
        <path stroke="#000" stroke-linecap="round" stroke-linejoin="round" stroke-width="2.5" d="M474.275 412.55c1.875 2.5 6.6 10 3.475 24.75 4.3 26.925 18.275 62.8 18.225 65-.375.875-9.325 3.9-9.675 0-.35-3.9-20.775-59.4-21.775-61.35M495.9 505.05c.45 3.025 1.55 5.9.85 5.9-.7 0-5 1.9-5.3-.975-1.875 1.775-15.375 3.45-13.475 1.35 1.9-2.1 9.175-5.275 9.4-6.275M445.9 509c.45 3.05.725 5.675 0 5.675s-4.875 1.8-5.175-.825c-.975.475-15 2.8-13.05.675 1.95-2.125 8.575-4.4 9.225-6.275M428.575 344.375c0-.725-.225-1.375-.325-1.9-.375-2-3.975-7.9-5.25-3.625s2.25 10.65 2.15 12.5c-.1 1.85 0 20.325 4.15 25.275 4.15 4.95 13.9 8.1 20.65 6.975"/>
        <path stroke="#000" stroke-linecap="round" stroke-linejoin="round" stroke-width="2.5" d="M454 373.375s-11.625 2.8-15.975 0-7.5-17.5-8.85-22.025c0-2.1.35-4.6.65-6.975M479.7 336.725c-.675-1.475-1.675-2.775-2.175-3.8-.925-1.825 1.225-4.375 3.75-2 2.132 2.328 3.698 5.117 4.575 8.15.85 1.75 6.075 16.3 6.075 21.925 0 6.925-6.1 14.825-16.225 18.875"/>
        <path stroke="#000" stroke-linecap="round" stroke-linejoin="round" stroke-width="2.5" d="M474.525 369.65c3.45-1.025 7.5-2.7 8.9-5 2.75-4.4-.6-21.325-2.1-23.75-1.12-1.4-2.414-2.651-3.85-3.725M442.675 344.225c-30.905.585-57.822-20.978-63.996-51.266-6.174-30.287 10.155-60.665 38.824-72.224 28.668-11.559 61.501-1.003 78.062 25.097s12.128 60.303-10.54 81.318"/>
        <path stroke="#000" stroke-linecap="round" stroke-linejoin="round" stroke-width="2.5" d="M430.825 222.425c2.975 22.5 10 57.5 10 57.5s38.55-5.45 57.8-7.775M497.275 295.75L440.85 280M485.2 342.625L482.325 343.65M428.625 353.325L425.575 353.5"/>
        <path fill="#1A2350" fill-rule="nonzero" d="M40.5 230.425v88.925h90.475l23.625.4.625-89.2-114.725-.125zm88.775 9.8c5.371 0 9.725 4.354 9.725 9.725 0 5.371-4.354 9.725-9.725 9.725-5.371 0-9.725-4.354-9.725-9.725 0-5.332 4.293-9.67 9.625-9.725h.1zm17.8 68.775c-1.075-.325-79.75.275-84.05.725-4.3.45-15 .475-15.55-1.375-.55-1.85-.25-17.325-.25-17.325 5.375-4.225 26.4-22.275 30.675-25.7 4.275-3.425 21.075 23.025 22.5 25.7 5.2-4.2 22.3-15.65 24.5-17.225 2.2-1.575 22.15 26.075 22.15 26.075s1.1 9.525.025 9.125z" opacity=".1"/>
        <path stroke="#000" stroke-linecap="round" stroke-linejoin="round" stroke-width="2.5" d="M39.125 152.325c26.025-2.65 42.5-36.075 58-36.075s17.5 18.025 32.15 18.025c14.65 0 18.925 13.65 29.375 13.65s27.675-31.675 46.85-31.675 27.675 49.275 47.5 49.275 30-34.325 51.45-34.325c21.45 0 28.175 34.325 47.5 34.325s30.425-15 40.925-15c10.5 0 14.8-9.675 23.125-9.675s12.5-14.475 19.375-16.7"/>
        <path stroke="#CDDC39" stroke-linecap="round" stroke-linejoin="round" stroke-width="2.5" d="M39.125 180.3c26.025-2.5 40.725-49.55 56.125-49.55 15.4 0 19.425 31.525 34.025 31.525 14.6 0 18.925 23.675 29.375 23.675s28-47.75 47.075-47.75c19.075 0 27.3 17.5 46.975 17.5s27.2-34.2 48.725-34.2c21.525 0 31.45 60.975 50.9 60.975s30.65-7 41.15-7 11.225 10.2 19.525 10.2c8.3 0 14-23.4 22.5-23.4"/>
        <path stroke="#000" stroke-linecap="round" stroke-linejoin="round" stroke-width="2.5" d="M199.4 317.125s-14.475.8-14.475-1.425.4-20.275.4-20.275H199.4v21.7zM223.725 316.5c0 1.675-14.075.75-14.075.75V281s10.3-1.25 14.075 0c0 2.15-.05 33.725 0 35.5zM248 317.125h-13.325s-.275-27.825-.275-40-.475-33.1-.475-33.1H248v73.1zM272.35 317.125s-14.075 1.075-14.075 0v-62.5c1.425-.925 14.075 0 14.075 0v62.5zM296.65 317.125h-14.075V270.35s13.075-1.05 13.45-.225c.375.825.625 47 .625 47z"/>
        <rect width="14.475" height="10.525" x="184.575" y="295.425" fill="#000" fill-rule="nonzero" rx="2.5"/>
        <rect width="14.475" height="10.55" x="209.425" y="280.175" fill="#000" fill-rule="nonzero" rx="2.5"/>
        <rect width="14.475" height="17.725" x="233.4" y="244.025" fill="#000" fill-rule="nonzero" rx="2.5"/>
        <rect width="14.475" height="22.3" x="257.725" y="255.15" fill="#000" fill-rule="nonzero" rx="2.5"/>
        <rect width="14.475" height="16.925" x="282.025" y="270.775" fill="#000" fill-rule="nonzero" rx="2.5"/>
        <path stroke="#000" stroke-linecap="round" stroke-linejoin="round" stroke-width="2.5" d="M1.875 73.05s438.675.6 467.9 0"/>
        <circle cx="19.2" cy="61.675" r="3.95" stroke="#000" stroke-linecap="round" stroke-linejoin="round" stroke-width="2.5"/>
        <circle cx="35.175" cy="61.675" r="3.95" stroke="#000" stroke-linecap="round" stroke-linejoin="round" stroke-width="2.5"/>
        <circle cx="51.175" cy="61.675" r="3.95" stroke="#000" stroke-linecap="round" stroke-linejoin="round" stroke-width="2.5"/>
        <path fill="#1A2350" fill-rule="nonzero" d="M436.675 339.975c-3.05-.004-6.097-.188-9.125-.55 2.075 5.125 4.225 12.175 6.05 18.55 21.325-.525 39.225-9.8 45.9-22.5V324.25c-9 9.4-24.725 15.725-42.825 15.725z" opacity=".05"/>
        <path fill="#1A2350" fill-rule="nonzero" d="M421.8 338.475c-19.175-3.925-33.5-15.2-35.475-28.875-3.275 4.237-5.09 9.42-5.175 14.775 0 17.275 19.6 31.525 44.85 33.4-1.675-7.1-3.475-14.325-4.2-19.3z" opacity=".1"/>
    </g>
</svg>
