<svg xmlns="http://www.w3.org/2000/svg" width="900" height="640" viewBox="0 0 900 640">
    <g fill="none" fill-rule="evenodd" transform="translate(202 86)">
        <path fill="#CDDC39" fill-rule="nonzero" d="M449.475 232.275c-23.65 0-43.35 22.95-47.8 51.475-.225 1.425-2.625 4.2-4.1 4.15-25.225-.8-170.8-2.925-197.05-1.9-1.41.047-2.581 1.103-2.775 2.5l-2.5 15.95c-.1.57.066 1.156.45 1.59.385.432.946.667 1.525.635 22.95-.775 172.5-1 200.675.45 2.075.55 3.781 2.026 4.625 4 3.825 17.15 13.3 31.275 25.725 38.925-.967-5.79-1.576-11.635-1.825-17.5.225-4.175 2.775-6.375 4.225-1.55 1.125 3.775 4.025 17.025 5.25 22.65l1.85.775c3.794 1.193 7.748 1.8 11.725 1.8h1.025c-1.584-5.744-2.762-11.591-3.525-17.5-.375-5 .35-5.675 3.975-7.75s14 .725 14.375 9.375c.063 4.342-.306 8.68-1.1 12.95 19.7-7.975 33.975-31.4 33.975-59.05.05-34.225-21.775-61.975-48.725-61.975zm13.375 78.95c-6.1 0-11.075-6.975-11.075-15.6s5-15.6 11.075-15.6c6.075 0 11.075 6.975 11.075 15.6s-4.95 15.6-11.075 15.6z"/>
        <circle cx="366.95" cy="112" r="10" fill="#1A2350" fill-rule="nonzero" opacity=".05"/>
        <circle cx="217.025" cy="5.125" r="5" fill="#1A2350" fill-rule="nonzero" opacity=".05"/>
        <path fill="#1A2350" fill-rule="nonzero" d="M72.367 17.557H93.59200000000001V38.782H72.367z" opacity=".05" transform="rotate(45 82.98 28.17)"/>
        <path stroke="#000" stroke-linecap="round" stroke-linejoin="round" stroke-width="2.5" d="M465.35 363.2c.125 4.075-1.975 22.225-1.975 23.675-1.45 1.15-13.5 1.675-17.625 0 .69-4.565.925-9.188.7-13.8-1.75-1.45-3.375-1.55-2.5-6.825"/>
        <path fill="#000" fill-rule="nonzero" stroke="#000" stroke-linecap="round" stroke-linejoin="round" stroke-width="2.5" d="M463 354.775c-1.373-2.547-1.652-5.543-.775-8.3 1.448-4.315.496-9.074-2.5-12.5-4.05-4.4-11.8-2.5-13.875 0-2.5 2.925-2.5 7.75.575 7.5 4.525-4.425 6.725 2.325 5.45 5.55-2.3 5.775-5.8 10.925-.9 12.5-2.5 3.875 1.65 9.1 6.15 8.45 2.953-.331 5.51-2.202 6.718-4.917 1.208-2.715.888-5.867-.843-8.283h0z"/>
        <path stroke="#000" stroke-linecap="round" stroke-linejoin="round" stroke-width="2.5" d="M446.625 344.3c-.225 1.9-.775 2.05-.875 2.85-.1.8.575.625 1.1.775.525.15.375 3.875.925 4.475.55.6.625.325 1.3.325M459.225 396.95c0 4.3-1.35 8.05-5.55 9.675-1.275 8.4-13 51.25-12.5 52.35.5 1.1-6.275 1.4-6.4-1.1-.725-4.825 4.575-34.05 5-40.15.425-6.1 5.9-30.85 5.9-30.85"/>
        <path stroke="#000" stroke-linecap="round" stroke-linejoin="round" stroke-width="2.5" d="M463.3 387.95c1.425 1.8 5 7.5 2.65 18.75 3.25 20.4 13.85 47.5 13.8 49.225-.275.675-7.05 2.975-7.325 0-.275-2.975-15.725-45-16.5-46.475M479.7 458.025c.35 2.3 1.175 4.45.65 4.45s-3.8 1.45-4.025-.725c-1.425 1.35-11.65 2.625-10.225 1.025 1.425-1.6 6.975-4 7.15-4.75M441.8 460.975c.35 2.3.55 4.275 0 4.275s-3.7 1.375-3.925-.6c-.75.325-11.3 2.1-10 .475 1.3-1.625 6.5-3.325 7-4.75M428.7 336.3c0-.55-.175-1.05-.25-1.425-.3-1.525-3.025-6-3.975-2.75-.95 3.25 1.7 8.075 1.625 9.525-.075 1.45 0 15.4 3.15 19.15 4.148 4.023 9.888 5.96 15.625 5.275"/>
        <path stroke="#000" stroke-linecap="round" stroke-linejoin="round" stroke-width="2.5" d="M448 358.275s-8.8 2.125-12.1 0c-3.3-2.125-5.7-13.3-6.7-16.675 0-1.6.275-3.5.5-5.3M475.5 342.425c.654 2.104 1.056 4.277 1.2 6.475 0 5.25-4.625 11.225-12.275 14.3M463.5 355.45c2.596-.52 4.96-1.85 6.75-3.8.662-1.517.937-3.175.8-4.825M428.75 343.075L426.425 343.225"/>
        <path fill="#1A2350" fill-rule="nonzero" d="M29.95 235c10.225-7.5 52.025-5.975 52.7 9.35.675 15.325-.55 207.5-6.175 216.425-5.625 8.925-36.2 3.7-42.925 5-6.725 1.3-3.05-116.775-3.6-129.475-.55-12.7 0-101.3 0-101.3z" opacity=".1"/>
        <path stroke="#000" stroke-linecap="round" stroke-linejoin="round" stroke-width="2.5" d="M341.075 284.275c-.175-29.825-.975-52.5-2.975-56.625-28.675-5-311.3 0-311.3 0s-1.675 109.325 0 126c1.675 16.675 0 113.5 0 113.5M338 467.15s2.5-84.55 2.95-153.3M83.175 235c.725 27.75-1.5 229.65 0 220M.075 467.15c23.625-.75 368.325-.275 382.2 0"/>
        <path stroke="#000" stroke-linecap="round" stroke-linejoin="round" stroke-width="2.5" d="M70.075 226.5s2.25-.95 0-72.5S119.1 36.5 189.375 34.475c70.275-2.025 121.25 60.3 119.3 119.3-1.95 59-1.925 71.5-1.925 71.5"/>
        <path stroke="#000" stroke-linecap="round" stroke-linejoin="round" stroke-width="2.5" d="M241.675 92.15c-14.75-8.15-30.7-13.425-52.3-10.65-33.875 4.575-55.275 35.725-55.275 68.025v75.35M259.125 106.5c-2.03-2.552-4.299-4.904-6.775-7.025"/>
        <path stroke="#000" stroke-linecap="round" stroke-linejoin="round" stroke-width="2.5" d="M248.625 219c.475-14.625 0-45.525 0-69.4 0-31.575-25.35-59.075-57.275-57.275-7.825.425-13.675.95-17.925 1.425M227.25 283.85c-3.217-6.074-9.408-9.992-16.275-10.3-11.325 0-20.475 11.75-20.475 26.25 0 11 5.275 20.425 12.75 24.325l-4.375 44.65H223l-4.4-44.65c6.78-4.015 11.328-10.934 12.325-18.75"/>
        <path stroke="#000" stroke-linecap="round" stroke-linejoin="round" stroke-width="2.5" d="M426.15 349.95c-14.45-7.725-25.325-24.05-28.725-43.9h0c-11.975-1.875-190.85-.925-202.725 0"/>
        <path stroke="#000" stroke-linecap="round" stroke-linejoin="round" stroke-width="2.5" d="M199.6 284.725c18.825-1.225 185.45-.5 196.725.175h.4c3.05-30.5 23.55-54.05 48.375-54.05 26.95 0 48.775 27.725 48.775 61.95s-21.825 61.975-48.775 61.975c-3.98.004-7.935-.612-11.725-1.825"/>
        <ellipse cx="460.1" cy="292.85" stroke="#000" stroke-linecap="round" stroke-linejoin="round" stroke-width="2.5" rx="11.2" ry="14.225"/>
        <path fill="#1A2350" fill-rule="nonzero" d="M173.45 85.975c15.7-5.125 77.025-5.475 90 26.025 12.975 31.5 6.525 73.775 6.525 73.775s1.3 34.6 1.625 39.1c.325 4.5-18.7 5.125-19.275-15 0 0 3.875-102.9-31.525-110.3-35.4-7.4-74.3-4.8-47.35-13.6z" opacity=".1"/>
        <path fill="#000" fill-rule="nonzero" d="M198.875 305.875c-5.375-2.15-2.1-8.425.725-13.025s9.55-7.5 15.175-7.75c8.775-.4 13.9-1.375 10-4.625-5.575-4.675-8.35-7.8-17.05-6.925-2.554.418-4.996 1.354-7.175 2.75-.356.193-.699.41-1.025.65-3.575 2.375-6.225 5.375-5 7.175-1.944 4.385-3.297 9.009-4.025 13.75-.117 2.558.3 5.112 1.225 7.5h-1.275c1.136 3.843 2.54 7.602 4.2 11.25 1.875 3.45 8.55 7.5 8.55 7.5l-4.375 44.65 24.05-1.6-4.25-43.05c3.1-2.63 6-5.489 8.675-8.55 1.551-3.27 2.774-6.688 3.65-10.2 0 0-26.675 2.625-32.075.5z"/>
    </g>
</svg>
