<svg xmlns="http://www.w3.org/2000/svg" width="900" height="640" viewBox="0 0 900 640">
    <g fill="none" fill-rule="evenodd" transform="translate(157.5 130)">
        <path fill="#1A2350" fill-rule="nonzero" d="M431.7 269.625c-32.5.275-333.75 0-419.85 0-2.62-.003-5.09 1.221-6.676 3.307-1.585 2.086-2.103 4.794-1.399 7.318l2.5 8.725c.885 3.208 3.848 5.397 7.175 5.3 48.8-1.65 393.975-.25 418.325 0 25.925.175 34.125-24.95-.075-24.65zm-410 17.25c-2.319-.156-4.297-1.734-4.965-3.96-.668-2.226.115-4.633 1.965-6.04 2.104-1.674 4.92-2.151 7.458-1.263 2.537.888 4.441 3.017 5.042 5.638.125 3.75-4.325 6.25-9.6 5.625h.1zm32.975.475c-5.875.775-12.5-3.075-10-9.1 2.875-6.85 16.55-1.9 18 1.6 1.45 3.5-2.2 6.725-8.1 7.5h.1zm28.725-.475c-5-1.8-12.5-6.575-4.825-9.45 5-1.9 12.5.25 12.775 3.7.188 2.028-.715 4.004-2.373 5.188-1.658 1.184-3.82 1.398-5.677.562h.1zm27.5 0c-2.323-.147-4.31-1.722-4.985-3.95-.674-2.228.108-4.64 1.96-6.05 2.108-1.66 4.918-2.129 7.45-1.242 2.533.886 4.438 3.005 5.05 5.617 0 3.75-4.45 6.25-9.7 5.625h.225zm37.65-3.15c-1.725 3.1-13.825 5-15 0-1-4.075.475-6.85 7.325-8.45 5.525-1.35 9.125 5.35 7.45 8.45h.225zm29.95-1.225c-1.425 3.5-15 8.425-17.975 1.575-2.5-6 4.15-9.85 10-9.075 5.85.775 9.475 3.925 7.975 7.5zm15.925 2.5c-6.2-5.15 0-7.625 4.85-9.425 1.843-.785 3.963-.55 5.589.621 1.626 1.171 2.521 3.107 2.361 5.104-.325 3.3-8 7.525-12.8 3.525V285zm29.2.475c-1.881-1.396-2.683-3.822-2.005-6.064.678-2.242 2.69-3.817 5.03-3.936 5.25-.7 9.7 1.95 9.525 5.525-.612 2.626-2.533 4.751-5.084 5.625-2.551.874-5.372.374-7.466-1.325v.175zm32.975 1.675c-6.85-1.6-8.325-4.375-7.35-8.45 1.225-5 13.3-3.1 15 0 1.7 3.1-1.9 9.625-7.65 8.275v.175zm35.9-4.65c-1.425 3.5-15.125 8.425-17.975 1.575-2.5-6 4.125-9.85 10-9.075 5.875.775 9.5 3.925 7.975 7.5zm21.575 3.85c-1.767.877-3.858.796-5.551-.215-1.694-1.011-2.758-2.814-2.824-4.785-.275-4.375 6.525-8.475 12.5-4.675 6.8 4.175.75 7.425-4.025 9.6l-.1.075zm23.525-.975c-1.881-1.396-2.683-3.822-2.005-6.064.678-2.242 2.69-3.817 5.03-3.936 5.25-.7 9.7 1.95 9.55 5.525-.15 3.575-6.05 8.775-12.475 4.4l-.1.075zm32.975 1.675c-6.85-1.6-8.3-4.375-7.325-8.45 1.225-5 13.3-3.1 15 0 1.7 3.1-1.8 9.725-7.575 8.375l-.1.075zm30.55.375c-5.9.775-12.5-3.075-10-9.1 2.85-6.85 16.55-1.9 17.975 1.6 1.425 3.5-2 6.65-7.875 7.425l-.1.075zm28.7-.475C425 285 417.5 280.3 425 277.5c5-1.9 12.5.25 12.8 3.7.104 1.945-.784 3.81-2.359 4.956-1.575 1.145-3.623 1.416-5.441.719l-.175.075z" opacity=".1"/>
        <circle cx="386.45" cy="53" r="10" fill="#1A2350" fill-rule="nonzero" opacity=".05"/>
        <circle cx="276.15" cy="5.825" r="5" fill="#1A2350" fill-rule="nonzero" opacity=".05"/>
        <path fill="#1A2350" fill-rule="nonzero" d="M108.37 61.538H129.595V82.763H108.37z" opacity=".05" transform="rotate(45 118.982 72.15)"/>
        <path fill="#CDDC39" fill-rule="nonzero" d="M570.25 234.375c-4.325-1.25-5.675 1.8-5.55 10.4s1.975 66.925 1.975 69.475c0 2.55 7.85 1.675 9.3 1.55 1.45-.125 0-4.675 0-4.675s-2.025-22.3-1.15-22.3 8.225.275 9.075.275c.85 0-.575-35-.575-38.2 0-3.2-3.325-13.7-13.075-16.525zM516.625 244.625c-2.675-1.6-4.275-.9-5.725 1.875-.875 1.7-.6 3.375 3.375 5 7.5 3.2 18.325 12.975 24.825 6.95 6.5-6.025 9.025-6 9.025-6s-4.625 63.9-6.425 66.375c-1.8 2.475 6.5 2.65 8.175.25 1.675-2.4 2.75-78.325 2.9-82.85.15-4.525-.125-5.225-5.625.15s-17.5 15.9-17.5 15.9l-13.025-7.65z"/>
        <path stroke="#000" stroke-linecap="round" stroke-linejoin="round" stroke-width="2.5" d="M.85 269.625c67.1 0 461.65.3 495.85 0 34.2-.3 26 24.825 0 24.6-26-.225-482.05-1.725-488.95.4M471.65 294.625c.7 19.475 1.85 84.675 1.85 84.675h6.5v-83.475M416.8 294.625c.725 19.475 1.875 84.675 1.875 84.675H425v-83.475"/>
        <path stroke="#000" stroke-linecap="round" stroke-linejoin="round" stroke-width="2.5" d="M425 277.5c5-1.9 12.5.25 12.8 3.7.16 2.003-.739 3.944-2.37 5.12-1.63 1.175-3.755 1.414-5.605.63C425 285 417.5 280.3 425 277.5zM391.2 278.25c2.85-6.85 16.55-1.9 17.975 1.6 1.425 3.5-2.075 6.725-7.95 7.5-5.875.775-12.55-3.075-10.025-9.1zM370.675 286.975c5.775 1.35 9.425-5.325 7.7-8.45-1.725-3.125-13.8-5-15 0-.875 3.975.45 6.85 7.3 8.45zM337.7 285.3c6.425 4.375 12.5-.775 12.5-4.375s-4.3-6.225-9.55-5.525c-2.273.194-4.196 1.759-4.848 3.945-.651 2.186.102 4.549 1.898 5.955zM318.275 276.475c-5.95-3.8-12.75.3-12.5 4.675.066 1.971 1.13 3.774 2.824 4.785 1.693 1.01 3.784 1.092 5.551.215 4.8-2.05 10.85-5.3 4.125-9.675zM274.625 284c2.85 6.85 16.55 1.925 17.975-1.575 1.425-3.5-2.075-6.725-7.95-7.5-5.875-.775-12.55 3.075-10.025 9.075zM256.6 286.975c5.75 1.35 9.4-5.325 7.675-8.45-1.725-3.125-13.8-5-15 0-1 3.975.475 6.85 7.325 8.45zM223.625 285.3c2.104 1.674 4.92 2.151 7.458 1.263 2.537-.888 4.441-3.017 5.042-5.638.175-3.575-4.275-6.225-9.525-5.525-2.277.185-4.209 1.746-4.867 3.935-.657 2.188.094 4.555 1.892 5.965h0zM194.425 284.825c4.8 4 12.5-.225 12.8-3.7.16-1.997-.735-3.933-2.361-5.104-1.626-1.17-3.746-1.406-5.589-.621-4.95 1.8-11.05 4.275-4.85 9.425zM160.525 284c2.875 6.85 16.55 1.925 17.975-1.575 1.425-3.5-2.05-6.725-7.95-7.5-5.9-.775-12.55 3.075-10.025 9.075zM140.625 275.275c5.775-1.35 9.425 5.35 7.7 8.45-1.725 3.1-13.825 5-15 0-1.025-4.075.45-6.85 7.3-8.45zM107.65 276.95c2.108-1.66 4.918-2.129 7.45-1.242 2.533.886 4.438 3.005 5.05 5.617.15 3.575-4.3 6.25-9.55 5.55-2.271-.208-4.186-1.778-4.836-3.963-.65-2.186.097-4.548 1.886-5.962zM18.6 276.95c2.104-1.674 4.92-2.151 7.458-1.263 2.537.888 4.441 3.017 5.042 5.638.175 3.575-4.275 6.25-9.55 5.55-2.271-.208-4.186-1.778-4.836-3.963-.65-2.186.097-4.548 1.886-5.962h0zM78.475 277.5c5-1.9 12.5.25 12.775 3.7.17 2.001-.722 3.945-2.35 5.123-1.627 1.177-3.752 1.415-5.6.627-4.925-1.95-12.375-6.65-4.825-9.45zM44.55 278.25c2.875-6.85 16.55-1.9 18 1.6 1.45 3.5-2.075 6.725-7.975 7.5-5.9.775-12.525-3.075-10.025-9.1zM437.9 269.625c14.7 0 24.85 24.425 0 24.325"/>
        <path fill="#CDDC39" fill-rule="nonzero" d="M201.65 170c-.047-1.054-.534-2.04-1.341-2.72-.808-.679-1.862-.989-2.909-.855-30 3.625-49.825 38.2-48.325 57.5 1.525 20.225 27.975 45 54.525 41.45 26.55-3.55 33.075-13.55 35-17.125 1.925-3.575-37.75-28.75-37.75-28.75s1.375-37.225.8-49.5z"/>
        <path stroke="#000" stroke-linecap="round" stroke-linejoin="round" stroke-width="2.5" d="M191.325 270c-24.952-3.596-43.777-24.496-44.757-49.686-.979-25.19 16.168-47.488 40.765-53.01 24.597-5.523 49.63 7.305 59.513 30.496 9.883 23.191 1.798 50.132-19.221 64.05-8.525 5.7-13.4 8.15-22.5 8.15"/>
        <path stroke="#000" stroke-linecap="round" stroke-linejoin="round" stroke-width="2.5" d="M197.925 170.5c-.575 18.425.425 47.5.425 47.5s31.45-5 47.5-5.8M238.2 244.85L198.35 218.1M264.725 267.325c.975-20.2 0-122.25 0-122.25s71.8-2.075 81-1.525c1.9 24.475.825 75.95.825 75.95M301.15 143.45c1.275-4.375 1.475-14.5 4.65-15 3.939-.221 7.886-.221 11.825 0l2.1 13.3M291.45 144.425c.275 11.6 1.55 117.05 1.475 122.9"/>
        <path fill="#000" fill-rule="nonzero" stroke="#000" stroke-linecap="round" stroke-linejoin="round" stroke-width="2.5" d="M320.675 244.675c0-13.904 11.271-25.175 25.175-25.175v-75h-57.5v125.2h54.4c-12.63-1.556-22.107-12.3-22.075-25.025z"/>
        <circle cx="345.85" cy="244.675" r="25.15" stroke="#000" stroke-linecap="round" stroke-linejoin="round" stroke-width="2.5"/>
        <path stroke="#000" stroke-linecap="round" stroke-linejoin="round" stroke-width="2.5" d="M497.65 250c0 11.087-8.988 20.075-20.075 20.075S457.5 261.087 457.5 250c0-11.108 9.005-20.113 20.113-20.113 11.107 0 20.112 9.005 20.112 20.113h-.075z"/>
        <path stroke="#000" stroke-linecap="round" stroke-linejoin="round" stroke-width="2.5" d="M483.65 256.025c-3.417 3.452-8.986 3.48-12.438.063-3.451-3.418-3.48-8.986-.062-12.438 2.21-2.233 5.444-3.117 8.484-2.319 3.039.798 5.421 3.157 6.25 6.188.828 3.03-.023 6.273-2.234 8.506h0zM345.85 222.475L345.85 243.45 363.075 255.525"/>
        <path stroke="#000" stroke-linecap="round" stroke-linejoin="round" stroke-width="2.5" d="M366.95 239L345.85 243.45 356.4 262.675M394.525 269.2v-28.875s8.125-.825 10 0M414.775 244.825c2.15-.15 10 0 10 0V269.2h-10"/>
        <path stroke="#000" stroke-linecap="round" stroke-linejoin="round" stroke-width="2.5" d="M424.675 250.425c3.32-.427 6.68-.427 10 0 .425 7.5 0 18.775 0 18.775h-10M414.775 269.2h-10v-41.3c3.324-.354 6.676-.354 10 0v41.3z"/>
        <path fill="#1A2350" fill-rule="nonzero" d="M326.8 265.525c2.85-9.375 8.4-20 10.275-25.55 1.875-5.55 7.9-15.15 8.775-20.475.875-5.325-30.425-12-30.425-12s-14.35 34.6-3.775 44.225 15.15 13.8 15.15 13.8z" opacity=".05"/>
        <path stroke="#000" stroke-linecap="round" stroke-linejoin="round" stroke-width="2.5" d="M109.25 202.325c-5.95 2.5-16.9 6.775-21.35 9.275-6.7-2.125-20-8.275-21.5-8.55-1.5-.275-9.5 4.55-12.975 7.825-2.2 2.1-20.5-24.65-24.725-24.3-4.225.35-23.7 9.85-23.7 9.85"/>
        <path stroke="#000" stroke-linecap="round" stroke-linejoin="round" stroke-width="2.5" d="M5 170.5c10.95-4.4 23.475-12.5 26.1-12.5s17.775 29.05 19.25 28.6c1.475-.45 16.65-3.825 16.65-3.825s18.125 15.175 20.35 15.175c3.325-2.5 25.675-7.5 27.275-7.5 1.6 0 0 79.1 0 79.1"/>
        <path stroke="#000" stroke-linecap="round" stroke-linejoin="round" stroke-width="2.5" d="M5 231.475c14.65-9 20.925-13.45 20.925-13.45s25 8.425 27.5 10c2.5-.95 12.5-5.625 12.5-5.625l20.35 2.275s20.55-6.975 22.925-8.075"/>
        <path fill="#1A2350" fill-rule="nonzero" d="M9.725 231.825c6.302-4.1 13.003-7.55 20-10.3 0 0 22.15 7.5 24.675 9.15 2.5-.95 12.5-5.625 12.5-5.625l20.35 2.275s15.725-5.375 22.5-7.875c1.655-.602 2.562-2.382 2.075-4.075l-1.725-6c.003-.99-.492-1.917-1.317-2.465-.825-.549-1.87-.646-2.783-.26-5.975 2.5-13.7 5.525-17.25 7.5-6.7-2.125-20-8.275-21.5-8.55-1.5-.275-9.5 4.55-12.975 7.825-2.2 2.1-20.5-24.675-24.725-24.3-3.125.25-16.5 5.55-23.25 8.3-2.35.94-3.782 3.335-3.5 5.85l2.7 26.55c.048.977.63 1.848 1.513 2.266.884.419 1.926.316 2.712-.266z" opacity=".1"/>
        <path stroke="#000" stroke-linecap="round" stroke-linejoin="round" stroke-width="2.5" d="M552.775 238.075c-.175 5.975-5.275 77.5-5.4 81.075-3.575 0-6.2.55-8.175-.25 2.275-15.125 7.5-69.075 6.35-73.475M562.325 277.1c-2 0-9.25.15-11.35 0M570.975 249.55c0 3.525 1.45 30.925 2.9 50 .75 9.85 2.1 17.5 2.1 18.075-3.781 1.06-7.675 1.664-11.6 1.8 0 0-2.05-79.125-2.05-81.225"/>
        <path fill="#000" fill-rule="nonzero" stroke="#000" stroke-linecap="round" stroke-linejoin="round" stroke-width="2.5" d="M565 225.3c-1.239-1.49-1.88-3.388-1.8-5.325.5-2.5-2.325-3.125-2.725-1.5-.4 1.625-.7 3.3-1.7 2.5-.74-2.358-.987-4.843-.725-7.3 0-2.5-6.525-.95-9.825-.55-3.3.4-3.075-5.375-2.15-6.9.925-1.525 14.1-3.65 19.225.275 5.125 3.925 1.025 16.075.825 17.1-.642 3.022-.878 6.116-.7 9.2"/>
        <path stroke="#000" stroke-linecap="round" stroke-linejoin="round" stroke-width="2.5" d="M548.45 214.65c-.189 2.536-.624 5.048-1.3 7.5-.525.925 1.3.725 2 .925.7.2.5 5.125 1.2 5.925.7.8 5 0 6.225 0M573.925 319.3c2.15 27.375 3.7 48.825 3.65 51.275-.375.875-9.325 3.925-9.675 0-.35-3.925-10.3-60.825-11.325-62.775-1.025-1.95-5 23.575-4.75 26.375.225 4.325-.825 33.975 0 35.425.825 1.45-8.3 1.85-8.45-1.45-.975-6.375-1.6-40.8-1.125-48.875M577.5 373.325c.45 3.05 1.55 5.9.85 5.9-2.355.453-4.76.579-7.15.375-1 .475-13.525 2.125-11.65 0s9.2-5.25 9.425-6.275M552.5 372.225c.475 3.05.95 5.15.275 5.15-2.313.45-4.679.568-7.025.35-.975.475-13.3 2.125-11.425 0s8.575-4.4 9.225-6.275M542.2 255.6c-3.1 2.8-6.475 7.025-10.675 7-4.725 0-22.8-13.55-24.5-14.45-.925-.5-5.225-.75-7.5-1.8M554.075 231.775c-2.347.596-4.659 1.322-6.925 2.175-1.6.75-17.5 18.4-17.5 18.4s-18.25-7.075-20.625-8.675c-2.31-1.782-4.829-3.276-7.5-4.45-1.975-.525-8.525.9-5 3.4 1.763 1.188 3.62 2.233 5.55 3.125M576.55 291.15c-.114 2.909-.601 5.79-1.45 8.575-1.525 6 4.025 7.2 5.95-.925.096-2.404-.004-4.812-.3-7.2M510.475 245.425L508.725 248.15"/>
        <path stroke="#000" stroke-linecap="round" stroke-linejoin="round" stroke-width="2.5" d="M575.575 291.15h6.1s0-40.5-2.65-47.275c-2.65-6.775-6.6-6.975-12.625-11.175 0 0-3.4 5.85-8.475 5.575-5.075-.275-3.65-5.575-3.65-5.575M558.425 319.3L554.075 319.3M477.525 229.85L477.525 241.075M486.625 249.05c2.5-.675 10.825-1.9 10.825-1.9M482.5 256.975c1.625 1.25 7.825 8.25 7.825 8.25"/>
    </g>
</svg>
