<svg xmlns="http://www.w3.org/2000/svg" xmlns:xlink="http://www.w3.org/1999/xlink" width="1440" height="498" viewBox="0 0 1440 498">
    <defs>
        <linearGradient id="prefix__c" x1="50%" x2="50%" y1="0%" y2="100%">
            <stop offset="0%" stop-color="#FFF"/>
            <stop offset="100%" stop-color="#FFF" stop-opacity="0"/>
        </linearGradient>
        <path id="prefix__a" d="M0 0H1440V498H0z"/>
    </defs>
    <g fill="none" fill-rule="evenodd">
        <mask id="prefix__b" fill="#fff">
            <use xlink:href="#prefix__a"/>
        </mask>
        <g mask="url(#prefix__b)">
            <g>
                <g>
                    <path fill="#1A2350" fill-rule="nonzero" d="M1107.73 212.16l.1-.08-.1.08zM1109.735 211.16l.09-.08-.09.08zM1104.705 214.18l.15-.12-.15.12zM1106.715 213.17l.13-.1-.13.1zM845.792 201.66c106.541 0 106.541 22.96 213.082 22.96h2.406-2.406c-106.54 0-106.54-22.96-213.082-22.96-1.527 0-2.995 0-4.512-.04 1.478.026 2.985.04 4.512.04zM1102.695 215.18l.17-.12-.17.12zM1081.425 222.23l.71-.22-.71.22zM1083.47 222.23l.62-.22-.62.22zM1085.495 221.23l.57-.22-.57.22zM1077.355 222.225l.85-.21-.85.21zM1079.375 222.235l.81-.23-.81.23zM1087.53 220.23l.5-.22-.5.22zM1091.57 219.225l.42-.21-.42.21zM1097.64 216.205l.28-.17-.28.17zM1099.66 216.195l.24-.15-.24.15zM1095.62 217.21l.32-.18-.32.18zM1089.54 219.23l.48-.22-.48.22zM1093.6 218.215l.36-.19-.36.19zM1100.675 216.19l.21-.14-.21.14zM238.2 211.87l-.84.5.84-.5zM230.28 213.93l-1 .38 1-.38zM228.28 214.945c-.33.13-.66.23-1 .35.368-.12.67-.24 1-.35zM225.28 214.97l-1 .3 1-.3zM234.24 213.895c-.3.16-.61.3-.92.45.31-.15.62-.29.92-.45zM236.22 212.885l-.88.47.88-.47zM232.28 213.91l-1 .42 1-.42zM223.28 215.99l-1 .26 1-.26zM252.06 203.835l-.56.57.56-.57zM214.28 216.09c-.664 0-1.328.06-2 .06.672 0 1.37-.02 2-.06zM221.28 216.015c-.33.08-.67.14-1 .21.298-.07.67-.13 1-.21zM1074.335 223.21l.89-.18-.89.18zM216.28 216.065c-.667.05-1.307.08-2 .11.667-.03 1.333-.06 2-.11zM218.28 216.04l-1 .16 1-.16zM250.08 204.835l-.6.57.6-.57zM1275.24 196.514c55.581 0 111.154-16.323 151.62-31.935 1.606-.62 4.825-1.687-.606-6.513-39.042-34.702-95.715-70.446-151.014-70.446-76.36 0-101.448 69.663-142.251 109.927-3.87 3.818-.361 5.217 2.57 5.061 42.543-2.258 64.813-6.094 139.68-6.094zM29.28 234.62l-4 1 4-1zM240.18 209.86c-.26.18-.53.35-.8.52.27-.17.54-.34.8-.52zM34.255 233.99l-.95.26.95-.26zM242.16 208.85c-.25.19-.5.36-.76.54.26-.18.51-.35.76-.54zM246.12 207.84l-.68.56.68-.56zM244.14 208.845l-.72.55.72-.55zM248.105 205.83l-.65.58.65-.58zM1065.28 224.18c.336 0 .685-.07 1-.12-.329.12-.664.12-1 .12zM684.28 149.77c.69.23 1.37.46 2 .7-.63-.24-1.31-.47-2-.7zM687.28 150.73c.667.26 1.343.51 2 .78-.657-.27-1.286-.52-2-.78zM698.28 152.62c.69.32 1.36.65 2 1-.64-.35-1.31-.7-2-1zM690.28 150.62c2.403.95 4.73 1.946 7 3-2.27-1.054-4.578-2.06-7-3zM681.28 148.8l2 .64-2-.64zM674.28 146.84l2 .56-2-.56zM677.28 147.825l2 .59-2-.59zM711.28 157.62c3.102 1.3 6.09 2.602 9 4-2.91-1.379-5.898-2.719-9-4zM701.28 153.62c.674.32 1.337.65 2 1-.663-.35-1.326-.68-2-1zM671.28 146.85c.681.17 1.336.36 2 .54-.664-.18-1.319-.37-2-.54zM721.28 162.62l2 1-2-1zM709.28 156.62l2 1-2-1zM706.28 156.62l2 1-2-1zM704.28 154.62l2 1-2-1zM723.28 162.62l2 1-2-1zM267.885 190.96l-.21.32.21-.32zM265.9 192.94l-.24.36.24-.36zM268.855 190l-.15.24.15-.24zM270.83 187.04c-.037.051-.07.104-.1.16.03-.056.063-.109.1-.16zM271.78 185.085v.07-.07zM425.033 200.62c106.648 0 106.648-52.091 213.296-52.091 8.596.037 16.698.49 25.213-.26 3.13-.276 1.771-2.318-1.999-2.672-7.88-.74-15.245-1.543-23.214-1.503-106.648 0-106.648-141.474-213.296-141.474-76.128 0-107.174 111.846-143.934 175.716-2.298 3.992.722 5.92 3.119 6.226 45.327 5.786 66.374 16.058 140.815 16.058zM263.925 194.915c-.1.13-.19.27-.29.41.1-.14.22-.28.29-.41zM256.025 201.845c-.16.18-.33.36-.49.55.16-.16.32-.34.49-.55zM258.005 199.85l-.45.54.45-.54zM254.05 202.84l-.54.56.54-.56zM260.965 195.875c-.12.17-.24.33-.37.49.13-.17.25-.32.37-.49zM258.985 197.865l-.41.51.41-.51zM262.945 194.895l-.33.45.33-.45zM757.28 180.62l2 2-2-2zM815.28 198.79c1.319.23 2.648.45 4 .66-1.352-.25-2.681-.43-4-.66zM824.28 199.965l3 .31-3-.31zM811.28 197.73c1.319.27 2.649.53 4 .78-1.308-.25-2.681-.51-4-.78zM820.28 198.915l3 .41-3-.41zM805.28 195.815l2 .61-2-.61zM801.28 195.795c.654.23 1.327.44 2 .65-.673-.26-1.346-.47-2-.65zM725.28 164.62c10.687 5.181 20.502 10.786 31 16-10.498-5.214-20.343-10.819-31-16zM828.28 200c.992.093 1.992.173 3 .24-1.008-.067-2.008-.147-3-.24zM1070.28 223.2l1-.16-1 .16zM1062.28 224.16c.659 0 1.33 0 2-.08-.67.04-1.341.06-2 .08zM1068.28 224.19l1-.14-1 .14zM837.28 201.06c1 0 2 .09 3 .12-1.01-.03-2.01-.07-3-.12zM832.28 201.03c.985.07 1.992.13 3 .18-1.008-.07-2.015-.07-3-.18zM808.28 196.815c.98.21 1.984.41 3 .61-1.04-.2-2.044-.4-3-.61zM762.28 182.62l2 1-2-1zM798.28 194.765c.657.24 1.324.48 2 .71-.676-.23-1.343-.47-2-.71zM773.28 188.62c.654.336 1.327.672 2 1l-2-1zM1072.28 223.21c.34-.06.68-.11 1-.18-.32.05-.66.12-1 .18zM759.28 182.62l2 1-2-1zM776.28 189.62l2 1-2-1zM764.28 183.62c2.606 1.377 5.263 2.708 8 4-2.737-1.3-5.414-2.623-8-4zM779.28 189.62c.66.34 1.33.69 2 1l-2-1zM787.28 193.62c.98.343 1.96.68 3 1-1.01-.32-2.01-.657-3-1zM794.28 194.7c.667.29 1.324.57 2 .84-.676-.27-1.333-.55-2-.84zM790.28 194.62c.98.339 1.96.677 3 1-1.01-.315-2.01-.653-3-1zM785.28 192.62c.66.343 1.33.676 2 1-.67-.333-1.34-.657-2-1zM781.28 191.62l2 1-2-1z" opacity=".1" transform="matrix(-1 0 0 1 1463 137) translate(.72 6.38)"/>
                    <path fill="#CDDC39" fill-rule="nonzero" d="M1419.025 164.98l-.49.28.49-.28zM1374.28 179.805l-1 .63 1-.63zM1422.925 163.035l-.29.17.29-.17zM1415.07 166.955l-.58.33.58-.33zM1384.12 176.965l-.68.31.68-.31zM1407.06 169.975l-.56.29.56-.29zM1379.28 178.855l-1 .53 1-.53zM1401.97 172.025l-.38.19.38-.19zM1411.09 168.955l-.62.33.62-.33zM1226.345 196.12h.87-.87zM1223.34 196.12h.88-.88zM1212.4 196.12h.76-.76zM1216.39 196.12h.78-.78zM1206.445 197.12h.67-.67zM1250.28 195.12h1-1zM1234.31 196.12h.94-.94zM1238.28 195.12h1-1zM1246.28 195.12h1-1zM1303.28 194.945l-2 .35 2-.35zM1298.28 194.97l-2 .3 2-.3zM1314.28 193.905l-2 .43 2-.43zM1293.28 194.995l-2 .25 2-.25zM1370.28 181.785l-2 .67 2-.67zM1319.28 192.895l-2 .45 2-.45zM1288.28 195.02l-2 .2 2-.2zM1483.28 139.62s-18.68 9.994-48.077 22.381c-9.147 3.855-5.451 6.992-3.587 8.656 18.933 16.897 36.191 34.588 51.664 52.963v-84zM1277.28 195.09l-2 .06 2-.06zM1282.28 195.055l-2 .13 2-.13zM1308.28 194.92l-2 .4 2-.4zM1324.28 191.9l-2 .44 2-.44zM1356.28 184.79l-2 .66 2-.66zM1351.28 185.805l-2 .63 2-.63zM1365.28 182.775l-2 .69 2-.69zM1361.28 183.775l-2 .69 2-.69zM1334.82 190.12h-.08.08zM1329.28 190.945l-1 .35 1-.35zM1340.28 188.895l-1 .45 1-.45zM1346.28 187.84l-2 .56 2-.56zM1136.28 203.18l1-.12-1 .12zM404.28 201.05l4 .14-4-.14zM400.28 200.06l3 .12-3-.12zM396.28 200.025l3 .19-3-.19zM391.28 200l4 .24-4-.24zM388.28 200.015c.99.08 1.99.14 3 .21-1.01-.07-2.01-.13-3-.21zM214.838 217.174c23.344 0 41.585-10.37 56.918-26.57 1.81-1.912 3.801-6.642-5.541-7.037-14.857-.628-30.78-1.947-51.377-1.947-106.719 0-210.558 20.002-210.558 20.002v39.998s103.839-24.446 210.558-24.446zM384.28 199.985c.97.1 1.99.18 3 .27-1.01-.07-2.01-.17-3-.27zM643.28 149.155l2-.07-2 .07zM413.28 201.095l3 .05-3-.05zM408.28 201.075c1.31 0 2.65.07 4 .09-1.35-.02-2.69-.05-4-.09zM373.28 198.945l3 .35-3-.35zM360.28 196.865c1 .18 2 .34 3 .51-1-.17-2-.33-3-.51zM357.28 196.88l3 .48-3-.48zM363.28 196.905l3 .43-3-.43zM349.28 195.62c2.584.345 5.244.679 8 1-2.794-.321-5.416-.655-8-1zM370.28 197.915l3 .41-3-.41zM648.28 149.15l1-.06-1 .06zM367.28 197.935l3 .37-3-.37zM377.28 198.975l3 .29-3-.29zM380.28 198.96l3 .32-3-.32zM1139.28 202.175l1-.11-1 .11zM1149.455 201.155l.65-.07-.65.07zM1178.69 199.12h.18-.18zM1181.68 199.12h.2-.2zM1147.445 202.155l.67-.07-.67.07zM1144.38 202.16l.8-.08-.8.08zM1186.575 198.12h.41-.41zM1194.5 197.12h.56-.56zM1197.505 197.12h.55-.55zM1188.575 198.12h.41-.41zM1142.28 202.165l1-.09-1 .09zM1127.28 203.2l2-.16-2 .16zM849.103 200.307c106.704 1.245 106.096 24.546 212.8 25.791 18.558.217 33.913-3.965 47.226-10.976 5.235-2.757 10.651-9.141-3.618-9.037-12.276.09-26.316.237-43.087.041C955.72 204.881 958.444 100.57 851.74 99.324c-87.83-1.024-105.438 30.596-166.46 43.148-6.5 1.338.39 3.515 5.222 4.715 59.478 14.772 74.451 52.138 158.601 53.12zM1203.455 197.145l.65-.05-.65.05zM658.71 148.12h.14-.14zM1122.28 203.175l2-.11-2 .11zM1125.28 203.17l1-.1-1 .1zM1131.28 203.175l1-.11-1 .11zM1133.28 203.17l1-.1-1 .1zM653.545 148.12h.47-.47z" transform="matrix(-1 0 0 1 1463 137) translate(.72 6.38)"/>
                    <path stroke="#000" stroke-linecap="round" stroke-linejoin="round" d="M1483.28 221.626s-34.48-50.52-93.798-89.817c-4.114-2.725-17.406-9.276-21.661-11.833-30.42-18.274-64.233-31.647-98.046-31.647-40.098 0-65.135 19.273-86.272 43.34-4.155 4.733-7.148 11.202-11.087 16.195-29.365 37.217-56.08 77.066-113.265 77.066-78.49 0-99.27-11.268-147.204-17.943-8.6-1.197-18.075-3.542-28.914-4.25-10.912-.714-23.208-1.125-37.386-1.125-49.963.013-75.891-13.087-101.23-26.687-11.847-6.358-15.155-10.736-29.14-16.024-18.285-6.914-48.854-13.9-80.244-13.9C528.28 145 528.27.62 421.518.62c-24.767 0-43.628 12.315-59.44 31.071-3.855 4.574-9.377 9.575-12.912 14.83-19.92 29.619-32.992 68.021-51.007 101.305-1.35 2.495-4.718 5.626-6.105 8.05-19.814 34.63-43.674 61.308-81.15 61.308-60.223 0-119.53 7.777-159.787 14.556-3.42.576-9.704 2.483-12.838 3.039C12.911 239.28.28 241.62.28 241.62" transform="matrix(-1 0 0 1 1463 137) translate(.72 6.38)"/>
                    <path stroke="#000" stroke-linecap="round" stroke-linejoin="round" d="M1483.28 137.126s-36.63 21.251-90.798 38.259c-6.567 2.062-15.529 3.417-22.506 5.33-30.99 8.499-65.566 16.161-100.2 16.161-18.896 0-33.471.767-46.845 1.167-2.608.077-12.05-.088-14.504 0-56.072 1.996-67.374 6.577-149.276 6.577-68.915 0-90.34-43.342-127.719-74.066-5.116-4.206-13.477-8.176-19.227-11.765-17.31-10.807-38.156-18.169-66.558-18.169-103.862 0-103.862 48.681-210.614 48.681-15.333 0-32.713.062-44.294 1.76-24.893 3.65-35.218 10.918-51.015 18.992-21.097 10.783-41.81 24.306-75.523 29.322-11.067 1.647-28.235 1.906-42.683 1.906-72.041.014-101.43-10.392-133.87-16.567-17.506-3.332-44.038-3.332-76.744-3.332-42.115 0-83.781 1.768-118.798 5.522-7.327.785-14.362 2.932-21.05 3.752C28.687 195.854.28 201.301.28 201.301" transform="matrix(-1 0 0 1 1463 137) translate(.72 6.38)"/>
                </g>
                <g fill="#FFF" fill-rule="nonzero" stroke="#000" transform="matrix(-1 0 0 1 1463 137) translate(206.734 .57)">
                    <path d="M10.596 186.93c0 2.79-2.259 5.054-5.05 5.06-2.79 0-5.92-2.7-5.51-5.46.41-2.76 3.2-6.17 6-5.76 2.8.41 4.56 3.37 4.56 6.16zM221.156 206.82c-.12 2.704-2.347 4.835-5.055 4.835-2.707 0-4.934-2.13-5.055-4.835 0-2.79 3.23-5.61 6-5.06 2.486.346 4.281 2.556 4.11 5.06h0zM10.476 224.25c-.387 1.763-1.686 3.185-3.407 3.731-1.72.546-3.602.133-4.935-1.085C.801 225.68.22 223.843.606 222.08c.6-2.73 4-4.3 6.71-3.7 2.71.6 3.76 3.14 3.16 5.87zM645.186 204.1c1.19 2.53-.8 6-3.33 7.16-2.506 1.079-5.416-.023-6.578-2.491-1.163-2.469-.16-5.414 2.268-6.659 2.53-1.19 6.45-.53 7.64 1.99zM644.716 105.43c0 2.79-2.27 6.06-5.06 6.06-2.79 0-5-3.27-5-6.06.12-2.704 2.348-4.835 5.055-4.835 2.708 0 4.935 2.13 5.055 4.835h-.05zM858.716 209.43c.083 1.86-.862 3.614-2.46 4.569-1.598.955-3.591.955-5.19 0-1.597-.955-2.542-2.71-2.46-4.569 0-2.79 3-5.05 5.82-5.05 2.82 0 4.29 2.3 4.29 5.05z"/>
                    <ellipse cx="853.886" cy="230.55" rx="5.28" ry="4.98"/>
                    <path d="M1068.446 96.49c-1.35 2.44-5.12 3.84-7.56 2.49-2.44-1.35-2.63-5-1.27-7.4 1.356-2.438 4.432-3.316 6.87-1.96 2.439 1.356 3.316 4.432 1.96 6.87zM1069.146 200.69c0 2.37-2.26 5.28-5.05 5.28s-5.06-2.91-5.06-5.28 2.27-4.27 5.06-4.27c2.79 0 5.05 1.91 5.05 4.27zM434.716 150.43c.083 1.86-.862 3.614-2.46 4.569-1.598.955-3.591.955-5.19 0-1.597-.955-2.542-2.71-2.46-4.569-.063-1.576.62-3.09 1.845-4.084 1.224-.994 2.846-1.352 4.375-.966 2.75.56 3.89 2.3 3.89 5.05z"/>
                    <path d="M434.716 155.45c-.005 2.792-2.267 5.054-5.06 5.06-2.79 0-4.95-3.29-4.95-6.08s2.16-4 4.95-4c2.78 0 5.038 2.241 5.06 5.02h0zM221.156 6.25c-.12 2.704-2.347 4.835-5.055 4.835-2.707 0-4.934-2.13-5.055-4.835 0-2.79 1.53-5.82 4.33-5.82s5.78 3.03 5.78 5.82z"/>
                </g>
            </g>
        </g>
        <path fill="url(#prefix__c)" d="M0 0H1440V420H0z" mask="url(#prefix__b)"/>
    </g>
</svg>
